<mxfile host="Electron" modified="2023-09-28T21:27:24.102Z" agent="Mozilla/5.0 (Windows NT 10.0; Win64; x64) AppleWebKit/537.36 (KHTML, like Gecko) draw.io/22.0.0 Chrome/114.0.5735.289 Electron/25.8.3 Safari/537.36" etag="flH8ENYiHDJaaLjGP-As" version="22.0.0" type="device">
  <diagram id="R2lEEEUBdFMjLlhIrx00" name="Page-1">
    <mxGraphModel dx="1569" dy="2511" grid="1" gridSize="10" guides="1" tooltips="1" connect="1" arrows="1" fold="1" page="1" pageScale="1" pageWidth="850" pageHeight="1100" math="0" shadow="0" extFonts="Permanent Marker^https://fonts.googleapis.com/css?family=Permanent+Marker">
      <root>
        <mxCell id="0" />
        <mxCell id="1" parent="0" />
        <mxCell id="5IJcJWC35ysio3x10tXy-29" value="" style="group" vertex="1" connectable="0" parent="1">
          <mxGeometry x="30" y="51" width="260" height="150" as="geometry" />
        </mxCell>
        <mxCell id="5IJcJWC35ysio3x10tXy-5" value="" style="triangle;whiteSpace=wrap;html=1;" vertex="1" parent="5IJcJWC35ysio3x10tXy-29">
          <mxGeometry x="141.66666666666669" y="105.55555555555554" width="35" height="44.44444444444444" as="geometry" />
        </mxCell>
        <mxCell id="5IJcJWC35ysio3x10tXy-338" value="" style="group" vertex="1" connectable="0" parent="5IJcJWC35ysio3x10tXy-29">
          <mxGeometry width="260" height="143" as="geometry" />
        </mxCell>
        <mxCell id="5IJcJWC35ysio3x10tXy-1" value="" style="triangle;whiteSpace=wrap;html=1;" vertex="1" parent="5IJcJWC35ysio3x10tXy-338">
          <mxGeometry x="89.16666666666667" y="50" width="35" height="44.44444444444444" as="geometry" />
        </mxCell>
        <mxCell id="5IJcJWC35ysio3x10tXy-3" value="" style="triangle;whiteSpace=wrap;html=1;" vertex="1" parent="5IJcJWC35ysio3x10tXy-338">
          <mxGeometry x="141.66666666666669" width="35" height="44.44444444444444" as="geometry" />
        </mxCell>
        <mxCell id="5IJcJWC35ysio3x10tXy-4" value="" style="triangle;whiteSpace=wrap;html=1;" vertex="1" parent="5IJcJWC35ysio3x10tXy-338">
          <mxGeometry x="141.66666666666669" y="50" width="35" height="44.44444444444444" as="geometry" />
        </mxCell>
        <mxCell id="5IJcJWC35ysio3x10tXy-7" value="" style="endArrow=classic;html=1;rounded=0;entryX=0;entryY=0.5;entryDx=0;entryDy=0;" edge="1" parent="5IJcJWC35ysio3x10tXy-338" target="5IJcJWC35ysio3x10tXy-5">
          <mxGeometry width="50" height="50" relative="1" as="geometry">
            <mxPoint x="124.16666666666669" y="72.22222222222221" as="sourcePoint" />
            <mxPoint x="270" y="238.88888888888886" as="targetPoint" />
            <Array as="points">
              <mxPoint x="130" y="72.22222222222221" />
              <mxPoint x="130" y="127.77777777777777" />
            </Array>
          </mxGeometry>
        </mxCell>
        <mxCell id="5IJcJWC35ysio3x10tXy-8" value="" style="endArrow=classic;html=1;rounded=0;entryX=0;entryY=0.5;entryDx=0;entryDy=0;" edge="1" parent="5IJcJWC35ysio3x10tXy-338" target="5IJcJWC35ysio3x10tXy-3">
          <mxGeometry width="50" height="50" relative="1" as="geometry">
            <mxPoint x="130" y="72.22222222222221" as="sourcePoint" />
            <mxPoint x="223.33333333333334" y="50" as="targetPoint" />
            <Array as="points">
              <mxPoint x="130" y="22.22222222222223" />
            </Array>
          </mxGeometry>
        </mxCell>
        <mxCell id="5IJcJWC35ysio3x10tXy-9" value="" style="endArrow=none;html=1;rounded=0;" edge="1" parent="5IJcJWC35ysio3x10tXy-338">
          <mxGeometry width="50" height="50" relative="1" as="geometry">
            <mxPoint x="60" y="66.66666666666666" as="sourcePoint" />
            <mxPoint x="89.16666666666667" y="66.66666666666666" as="targetPoint" />
          </mxGeometry>
        </mxCell>
        <mxCell id="5IJcJWC35ysio3x10tXy-10" value="" style="endArrow=none;html=1;rounded=0;" edge="1" parent="5IJcJWC35ysio3x10tXy-338">
          <mxGeometry width="50" height="50" relative="1" as="geometry">
            <mxPoint x="60" y="77.77777777777777" as="sourcePoint" />
            <mxPoint x="89.16666666666667" y="77.77777777777777" as="targetPoint" />
          </mxGeometry>
        </mxCell>
        <mxCell id="5IJcJWC35ysio3x10tXy-11" value="" style="endArrow=none;html=1;rounded=0;exitX=0.74;exitY=0.37;exitDx=0;exitDy=0;exitPerimeter=0;" edge="1" parent="5IJcJWC35ysio3x10tXy-338" source="5IJcJWC35ysio3x10tXy-3">
          <mxGeometry width="50" height="50" relative="1" as="geometry">
            <mxPoint x="170.83333333333331" y="16.572222222222223" as="sourcePoint" />
            <mxPoint x="200" y="16.572222222222223" as="targetPoint" />
          </mxGeometry>
        </mxCell>
        <mxCell id="5IJcJWC35ysio3x10tXy-12" value="" style="endArrow=none;html=1;rounded=0;exitX=0.748;exitY=0.631;exitDx=0;exitDy=0;exitPerimeter=0;" edge="1" parent="5IJcJWC35ysio3x10tXy-338" source="5IJcJWC35ysio3x10tXy-3">
          <mxGeometry width="50" height="50" relative="1" as="geometry">
            <mxPoint x="170.83333333333331" y="27.683333333333337" as="sourcePoint" />
            <mxPoint x="200" y="27.683333333333337" as="targetPoint" />
          </mxGeometry>
        </mxCell>
        <mxCell id="5IJcJWC35ysio3x10tXy-13" value="" style="endArrow=none;html=1;rounded=0;exitX=0.74;exitY=0.37;exitDx=0;exitDy=0;exitPerimeter=0;" edge="1" parent="5IJcJWC35ysio3x10tXy-338">
          <mxGeometry width="50" height="50" relative="1" as="geometry">
            <mxPoint x="167.33333333333331" y="66.64444444444442" as="sourcePoint" />
            <mxPoint x="200" y="66.54999999999998" as="targetPoint" />
          </mxGeometry>
        </mxCell>
        <mxCell id="5IJcJWC35ysio3x10tXy-14" value="" style="endArrow=none;html=1;rounded=0;exitX=0.748;exitY=0.631;exitDx=0;exitDy=0;exitPerimeter=0;" edge="1" parent="5IJcJWC35ysio3x10tXy-338">
          <mxGeometry width="50" height="50" relative="1" as="geometry">
            <mxPoint x="167.91666666666669" y="77.75555555555555" as="sourcePoint" />
            <mxPoint x="200" y="77.6611111111111" as="targetPoint" />
          </mxGeometry>
        </mxCell>
        <mxCell id="5IJcJWC35ysio3x10tXy-15" value="" style="endArrow=none;html=1;rounded=0;exitX=0.75;exitY=0.371;exitDx=0;exitDy=0;exitPerimeter=0;" edge="1" parent="5IJcJWC35ysio3x10tXy-338" source="5IJcJWC35ysio3x10tXy-5">
          <mxGeometry width="50" height="50" relative="1" as="geometry">
            <mxPoint x="170.83333333333331" y="122.22222222222223" as="sourcePoint" />
            <mxPoint x="200" y="122.22222222222223" as="targetPoint" />
          </mxGeometry>
        </mxCell>
        <mxCell id="5IJcJWC35ysio3x10tXy-16" value="" style="endArrow=none;html=1;rounded=0;exitX=0.748;exitY=0.631;exitDx=0;exitDy=0;exitPerimeter=0;" edge="1" parent="5IJcJWC35ysio3x10tXy-338">
          <mxGeometry width="50" height="50" relative="1" as="geometry">
            <mxPoint x="167.91666666666669" y="133.42777777777775" as="sourcePoint" />
            <mxPoint x="200" y="133.33333333333331" as="targetPoint" />
          </mxGeometry>
        </mxCell>
        <mxCell id="5IJcJWC35ysio3x10tXy-22" value="" style="endArrow=classic;html=1;rounded=0;exitX=1;exitY=0.5;exitDx=0;exitDy=0;entryX=-0.011;entryY=0.497;entryDx=0;entryDy=0;entryPerimeter=0;" edge="1" parent="5IJcJWC35ysio3x10tXy-338" source="5IJcJWC35ysio3x10tXy-1" target="5IJcJWC35ysio3x10tXy-4">
          <mxGeometry width="50" height="50" relative="1" as="geometry">
            <mxPoint x="150" y="120" as="sourcePoint" />
            <mxPoint x="200" y="70" as="targetPoint" />
          </mxGeometry>
        </mxCell>
        <mxCell id="5IJcJWC35ysio3x10tXy-23" value="df_i_*_20" style="text;strokeColor=none;align=center;fillColor=none;html=1;verticalAlign=middle;whiteSpace=wrap;rounded=0;" vertex="1" parent="5IJcJWC35ysio3x10tXy-338">
          <mxGeometry y="57.22" width="60" height="30" as="geometry" />
        </mxCell>
        <mxCell id="5IJcJWC35ysio3x10tXy-24" value="df_o_*_1" style="text;strokeColor=none;align=center;fillColor=none;html=1;verticalAlign=middle;whiteSpace=wrap;rounded=0;" vertex="1" parent="5IJcJWC35ysio3x10tXy-338">
          <mxGeometry x="200" y="6.219999999999999" width="60" height="30" as="geometry" />
        </mxCell>
        <mxCell id="5IJcJWC35ysio3x10tXy-27" value="df_o_*_9" style="text;strokeColor=none;align=center;fillColor=none;html=1;verticalAlign=middle;whiteSpace=wrap;rounded=0;" vertex="1" parent="5IJcJWC35ysio3x10tXy-338">
          <mxGeometry x="200" y="56" width="60" height="30" as="geometry" />
        </mxCell>
        <mxCell id="5IJcJWC35ysio3x10tXy-28" value="df_o_*_14" style="text;strokeColor=none;align=center;fillColor=none;html=1;verticalAlign=middle;whiteSpace=wrap;rounded=0;" vertex="1" parent="5IJcJWC35ysio3x10tXy-338">
          <mxGeometry x="200" y="113" width="60" height="30" as="geometry" />
        </mxCell>
        <mxCell id="5IJcJWC35ysio3x10tXy-51" value="A" style="text;strokeColor=none;align=center;fillColor=none;html=1;verticalAlign=middle;whiteSpace=wrap;rounded=0;" vertex="1" parent="5IJcJWC35ysio3x10tXy-338">
          <mxGeometry x="124.16999999999999" y="7.219999999999999" width="60" height="30" as="geometry" />
        </mxCell>
        <mxCell id="5IJcJWC35ysio3x10tXy-53" value="B" style="text;strokeColor=none;align=center;fillColor=none;html=1;verticalAlign=middle;whiteSpace=wrap;rounded=0;" vertex="1" parent="5IJcJWC35ysio3x10tXy-338">
          <mxGeometry x="124.16999999999999" y="57" width="60" height="30" as="geometry" />
        </mxCell>
        <mxCell id="5IJcJWC35ysio3x10tXy-54" value="C" style="text;strokeColor=none;align=center;fillColor=none;html=1;verticalAlign=middle;whiteSpace=wrap;rounded=0;" vertex="1" parent="5IJcJWC35ysio3x10tXy-338">
          <mxGeometry x="124.16999999999999" y="113" width="60" height="30" as="geometry" />
        </mxCell>
        <mxCell id="5IJcJWC35ysio3x10tXy-174" value="0" style="text;strokeColor=none;align=center;fillColor=none;html=1;verticalAlign=middle;whiteSpace=wrap;rounded=0;" vertex="1" parent="5IJcJWC35ysio3x10tXy-338">
          <mxGeometry x="68.99999999999999" y="57" width="60" height="30" as="geometry" />
        </mxCell>
        <mxCell id="5IJcJWC35ysio3x10tXy-82" value="" style="group" vertex="1" connectable="0" parent="1">
          <mxGeometry x="30" y="590" width="260" height="150" as="geometry" />
        </mxCell>
        <mxCell id="5IJcJWC35ysio3x10tXy-86" value="" style="triangle;whiteSpace=wrap;html=1;container=0;" vertex="1" parent="5IJcJWC35ysio3x10tXy-82">
          <mxGeometry x="141.66666666666669" y="105.55555555555554" width="35" height="44.44444444444444" as="geometry" />
        </mxCell>
        <mxCell id="5IJcJWC35ysio3x10tXy-335" value="" style="group" vertex="1" connectable="0" parent="5IJcJWC35ysio3x10tXy-82">
          <mxGeometry width="260" height="143" as="geometry" />
        </mxCell>
        <mxCell id="5IJcJWC35ysio3x10tXy-83" value="" style="triangle;whiteSpace=wrap;html=1;container=0;" vertex="1" parent="5IJcJWC35ysio3x10tXy-335">
          <mxGeometry x="89.16666666666667" y="50" width="35" height="44.44444444444444" as="geometry" />
        </mxCell>
        <mxCell id="5IJcJWC35ysio3x10tXy-84" value="" style="triangle;whiteSpace=wrap;html=1;container=0;" vertex="1" parent="5IJcJWC35ysio3x10tXy-335">
          <mxGeometry x="141.66666666666669" width="35" height="44.44444444444444" as="geometry" />
        </mxCell>
        <mxCell id="5IJcJWC35ysio3x10tXy-85" value="" style="triangle;whiteSpace=wrap;html=1;container=0;" vertex="1" parent="5IJcJWC35ysio3x10tXy-335">
          <mxGeometry x="141.66666666666669" y="50" width="35" height="44.44444444444444" as="geometry" />
        </mxCell>
        <mxCell id="5IJcJWC35ysio3x10tXy-87" value="" style="endArrow=classic;html=1;rounded=0;entryX=0;entryY=0.5;entryDx=0;entryDy=0;" edge="1" parent="5IJcJWC35ysio3x10tXy-335" target="5IJcJWC35ysio3x10tXy-86">
          <mxGeometry width="50" height="50" relative="1" as="geometry">
            <mxPoint x="124.16666666666669" y="72.22222222222223" as="sourcePoint" />
            <mxPoint x="270" y="238.88888888888886" as="targetPoint" />
            <Array as="points">
              <mxPoint x="130" y="72.22222222222223" />
              <mxPoint x="130" y="127.77777777777777" />
            </Array>
          </mxGeometry>
        </mxCell>
        <mxCell id="5IJcJWC35ysio3x10tXy-88" value="" style="endArrow=classic;html=1;rounded=0;entryX=0;entryY=0.5;entryDx=0;entryDy=0;" edge="1" parent="5IJcJWC35ysio3x10tXy-335" target="5IJcJWC35ysio3x10tXy-84">
          <mxGeometry width="50" height="50" relative="1" as="geometry">
            <mxPoint x="130" y="72.22222222222223" as="sourcePoint" />
            <mxPoint x="223.33333333333334" y="50" as="targetPoint" />
            <Array as="points">
              <mxPoint x="130" y="22.22222222222223" />
            </Array>
          </mxGeometry>
        </mxCell>
        <mxCell id="5IJcJWC35ysio3x10tXy-89" value="" style="endArrow=none;html=1;rounded=0;" edge="1" parent="5IJcJWC35ysio3x10tXy-335">
          <mxGeometry width="50" height="50" relative="1" as="geometry">
            <mxPoint x="60" y="66.66666666666663" as="sourcePoint" />
            <mxPoint x="89.16666666666667" y="66.66666666666663" as="targetPoint" />
          </mxGeometry>
        </mxCell>
        <mxCell id="5IJcJWC35ysio3x10tXy-90" value="" style="endArrow=none;html=1;rounded=0;" edge="1" parent="5IJcJWC35ysio3x10tXy-335">
          <mxGeometry width="50" height="50" relative="1" as="geometry">
            <mxPoint x="60" y="77.77777777777777" as="sourcePoint" />
            <mxPoint x="89.16666666666667" y="77.77777777777777" as="targetPoint" />
          </mxGeometry>
        </mxCell>
        <mxCell id="5IJcJWC35ysio3x10tXy-91" value="" style="endArrow=none;html=1;rounded=0;exitX=0.74;exitY=0.37;exitDx=0;exitDy=0;exitPerimeter=0;" edge="1" parent="5IJcJWC35ysio3x10tXy-335" source="5IJcJWC35ysio3x10tXy-84">
          <mxGeometry width="50" height="50" relative="1" as="geometry">
            <mxPoint x="170.83333333333331" y="16.572222222222223" as="sourcePoint" />
            <mxPoint x="200" y="16.572222222222223" as="targetPoint" />
          </mxGeometry>
        </mxCell>
        <mxCell id="5IJcJWC35ysio3x10tXy-92" value="" style="endArrow=none;html=1;rounded=0;exitX=0.748;exitY=0.631;exitDx=0;exitDy=0;exitPerimeter=0;" edge="1" parent="5IJcJWC35ysio3x10tXy-335" source="5IJcJWC35ysio3x10tXy-84">
          <mxGeometry width="50" height="50" relative="1" as="geometry">
            <mxPoint x="170.83333333333331" y="27.683333333333337" as="sourcePoint" />
            <mxPoint x="200" y="27.683333333333337" as="targetPoint" />
          </mxGeometry>
        </mxCell>
        <mxCell id="5IJcJWC35ysio3x10tXy-93" value="" style="endArrow=none;html=1;rounded=0;exitX=0.74;exitY=0.37;exitDx=0;exitDy=0;exitPerimeter=0;" edge="1" parent="5IJcJWC35ysio3x10tXy-335">
          <mxGeometry width="50" height="50" relative="1" as="geometry">
            <mxPoint x="167.33333333333331" y="66.64444444444439" as="sourcePoint" />
            <mxPoint x="200" y="66.54999999999995" as="targetPoint" />
          </mxGeometry>
        </mxCell>
        <mxCell id="5IJcJWC35ysio3x10tXy-94" value="" style="endArrow=none;html=1;rounded=0;exitX=0.748;exitY=0.631;exitDx=0;exitDy=0;exitPerimeter=0;" edge="1" parent="5IJcJWC35ysio3x10tXy-335">
          <mxGeometry width="50" height="50" relative="1" as="geometry">
            <mxPoint x="167.91666666666669" y="77.75555555555553" as="sourcePoint" />
            <mxPoint x="200" y="77.6611111111111" as="targetPoint" />
          </mxGeometry>
        </mxCell>
        <mxCell id="5IJcJWC35ysio3x10tXy-95" value="" style="endArrow=none;html=1;rounded=0;exitX=0.75;exitY=0.371;exitDx=0;exitDy=0;exitPerimeter=0;" edge="1" parent="5IJcJWC35ysio3x10tXy-335" source="5IJcJWC35ysio3x10tXy-86">
          <mxGeometry width="50" height="50" relative="1" as="geometry">
            <mxPoint x="170.83333333333331" y="122.22222222222223" as="sourcePoint" />
            <mxPoint x="200" y="122.22222222222223" as="targetPoint" />
          </mxGeometry>
        </mxCell>
        <mxCell id="5IJcJWC35ysio3x10tXy-96" value="" style="endArrow=none;html=1;rounded=0;exitX=0.748;exitY=0.631;exitDx=0;exitDy=0;exitPerimeter=0;" edge="1" parent="5IJcJWC35ysio3x10tXy-335">
          <mxGeometry width="50" height="50" relative="1" as="geometry">
            <mxPoint x="167.91666666666669" y="133.42777777777775" as="sourcePoint" />
            <mxPoint x="200" y="133.33333333333331" as="targetPoint" />
          </mxGeometry>
        </mxCell>
        <mxCell id="5IJcJWC35ysio3x10tXy-97" value="" style="endArrow=classic;html=1;rounded=0;exitX=1;exitY=0.5;exitDx=0;exitDy=0;entryX=-0.011;entryY=0.497;entryDx=0;entryDy=0;entryPerimeter=0;" edge="1" parent="5IJcJWC35ysio3x10tXy-335" source="5IJcJWC35ysio3x10tXy-83" target="5IJcJWC35ysio3x10tXy-85">
          <mxGeometry width="50" height="50" relative="1" as="geometry">
            <mxPoint x="150" y="120" as="sourcePoint" />
            <mxPoint x="200" y="70" as="targetPoint" />
          </mxGeometry>
        </mxCell>
        <mxCell id="5IJcJWC35ysio3x10tXy-98" value="df_i_*_5" style="text;strokeColor=none;align=center;fillColor=none;html=1;verticalAlign=middle;whiteSpace=wrap;rounded=0;container=0;" vertex="1" parent="5IJcJWC35ysio3x10tXy-335">
          <mxGeometry y="57.22000000000003" width="60" height="30" as="geometry" />
        </mxCell>
        <mxCell id="5IJcJWC35ysio3x10tXy-99" value="df_o_*_5" style="text;strokeColor=none;align=center;fillColor=none;html=1;verticalAlign=middle;whiteSpace=wrap;rounded=0;container=0;" vertex="1" parent="5IJcJWC35ysio3x10tXy-335">
          <mxGeometry x="200" y="6.219999999999999" width="60" height="30" as="geometry" />
        </mxCell>
        <mxCell id="5IJcJWC35ysio3x10tXy-100" value="df_0000_*" style="text;strokeColor=none;align=center;fillColor=none;html=1;verticalAlign=middle;whiteSpace=wrap;rounded=0;container=0;" vertex="1" parent="5IJcJWC35ysio3x10tXy-335">
          <mxGeometry x="200" y="56" width="60" height="30" as="geometry" />
        </mxCell>
        <mxCell id="5IJcJWC35ysio3x10tXy-101" value="df_0001_*" style="text;strokeColor=none;align=center;fillColor=none;html=1;verticalAlign=middle;whiteSpace=wrap;rounded=0;container=0;" vertex="1" parent="5IJcJWC35ysio3x10tXy-335">
          <mxGeometry x="200" y="113" width="60" height="30" as="geometry" />
        </mxCell>
        <mxCell id="5IJcJWC35ysio3x10tXy-102" value="A" style="text;strokeColor=none;align=center;fillColor=none;html=1;verticalAlign=middle;whiteSpace=wrap;rounded=0;container=0;" vertex="1" parent="5IJcJWC35ysio3x10tXy-335">
          <mxGeometry x="122.16999999999999" y="7" width="60" height="30" as="geometry" />
        </mxCell>
        <mxCell id="5IJcJWC35ysio3x10tXy-103" value="B" style="text;strokeColor=none;align=center;fillColor=none;html=1;verticalAlign=middle;whiteSpace=wrap;rounded=0;container=0;" vertex="1" parent="5IJcJWC35ysio3x10tXy-335">
          <mxGeometry x="122.16999999999999" y="56.77999999999997" width="60" height="30" as="geometry" />
        </mxCell>
        <mxCell id="5IJcJWC35ysio3x10tXy-104" value="C" style="text;strokeColor=none;align=center;fillColor=none;html=1;verticalAlign=middle;whiteSpace=wrap;rounded=0;container=0;" vertex="1" parent="5IJcJWC35ysio3x10tXy-335">
          <mxGeometry x="122.16999999999999" y="112.77999999999997" width="60" height="30" as="geometry" />
        </mxCell>
        <mxCell id="5IJcJWC35ysio3x10tXy-201" value="3" style="text;strokeColor=none;align=center;fillColor=none;html=1;verticalAlign=middle;whiteSpace=wrap;rounded=0;" vertex="1" parent="5IJcJWC35ysio3x10tXy-335">
          <mxGeometry x="68.99999999999999" y="57" width="60" height="30" as="geometry" />
        </mxCell>
        <mxCell id="5IJcJWC35ysio3x10tXy-327" value="" style="group" vertex="1" connectable="0" parent="1">
          <mxGeometry x="342" y="940" width="260" height="150" as="geometry" />
        </mxCell>
        <mxCell id="5IJcJWC35ysio3x10tXy-304" value="" style="triangle;whiteSpace=wrap;html=1;container=0;" vertex="1" parent="5IJcJWC35ysio3x10tXy-327">
          <mxGeometry x="89.16666666666669" y="50" width="35" height="44.44444444444444" as="geometry" />
        </mxCell>
        <mxCell id="5IJcJWC35ysio3x10tXy-305" value="" style="triangle;whiteSpace=wrap;html=1;container=0;" vertex="1" parent="5IJcJWC35ysio3x10tXy-327">
          <mxGeometry x="141.66666666666669" width="35" height="44.44444444444444" as="geometry" />
        </mxCell>
        <mxCell id="5IJcJWC35ysio3x10tXy-306" value="" style="triangle;whiteSpace=wrap;html=1;container=0;" vertex="1" parent="5IJcJWC35ysio3x10tXy-327">
          <mxGeometry x="141.66666666666669" y="50" width="35" height="44.44444444444444" as="geometry" />
        </mxCell>
        <mxCell id="5IJcJWC35ysio3x10tXy-307" value="" style="triangle;whiteSpace=wrap;html=1;container=0;" vertex="1" parent="5IJcJWC35ysio3x10tXy-327">
          <mxGeometry x="141.66666666666669" y="105.55555555555566" width="35" height="44.44444444444444" as="geometry" />
        </mxCell>
        <mxCell id="5IJcJWC35ysio3x10tXy-308" value="" style="endArrow=classic;html=1;rounded=0;entryX=0;entryY=0.5;entryDx=0;entryDy=0;" edge="1" parent="5IJcJWC35ysio3x10tXy-327" target="5IJcJWC35ysio3x10tXy-307">
          <mxGeometry width="50" height="50" relative="1" as="geometry">
            <mxPoint x="124.16666666666669" y="72.22222222222217" as="sourcePoint" />
            <mxPoint x="270" y="238.8888888888889" as="targetPoint" />
            <Array as="points">
              <mxPoint x="130" y="72.22222222222217" />
              <mxPoint x="130" y="127.77777777777783" />
            </Array>
          </mxGeometry>
        </mxCell>
        <mxCell id="5IJcJWC35ysio3x10tXy-309" value="" style="endArrow=classic;html=1;rounded=0;entryX=0;entryY=0.5;entryDx=0;entryDy=0;" edge="1" parent="5IJcJWC35ysio3x10tXy-327" target="5IJcJWC35ysio3x10tXy-305">
          <mxGeometry width="50" height="50" relative="1" as="geometry">
            <mxPoint x="130" y="72.22222222222217" as="sourcePoint" />
            <mxPoint x="223.33333333333337" y="50" as="targetPoint" />
            <Array as="points">
              <mxPoint x="130" y="22.22222222222217" />
            </Array>
          </mxGeometry>
        </mxCell>
        <mxCell id="5IJcJWC35ysio3x10tXy-310" value="" style="endArrow=none;html=1;rounded=0;" edge="1" parent="5IJcJWC35ysio3x10tXy-327">
          <mxGeometry width="50" height="50" relative="1" as="geometry">
            <mxPoint x="60" y="66.66666666666663" as="sourcePoint" />
            <mxPoint x="89.16666666666669" y="66.66666666666663" as="targetPoint" />
          </mxGeometry>
        </mxCell>
        <mxCell id="5IJcJWC35ysio3x10tXy-311" value="" style="endArrow=none;html=1;rounded=0;" edge="1" parent="5IJcJWC35ysio3x10tXy-327">
          <mxGeometry width="50" height="50" relative="1" as="geometry">
            <mxPoint x="60" y="77.77777777777783" as="sourcePoint" />
            <mxPoint x="89.16666666666669" y="77.77777777777783" as="targetPoint" />
          </mxGeometry>
        </mxCell>
        <mxCell id="5IJcJWC35ysio3x10tXy-312" value="" style="endArrow=none;html=1;rounded=0;exitX=0.74;exitY=0.37;exitDx=0;exitDy=0;exitPerimeter=0;" edge="1" parent="5IJcJWC35ysio3x10tXy-327" source="5IJcJWC35ysio3x10tXy-305">
          <mxGeometry width="50" height="50" relative="1" as="geometry">
            <mxPoint x="170.83333333333326" y="16.572222222222194" as="sourcePoint" />
            <mxPoint x="200" y="16.572222222222194" as="targetPoint" />
          </mxGeometry>
        </mxCell>
        <mxCell id="5IJcJWC35ysio3x10tXy-313" value="" style="endArrow=none;html=1;rounded=0;exitX=0.748;exitY=0.631;exitDx=0;exitDy=0;exitPerimeter=0;" edge="1" parent="5IJcJWC35ysio3x10tXy-327" source="5IJcJWC35ysio3x10tXy-305">
          <mxGeometry width="50" height="50" relative="1" as="geometry">
            <mxPoint x="170.83333333333326" y="27.683333333333394" as="sourcePoint" />
            <mxPoint x="200" y="27.683333333333394" as="targetPoint" />
          </mxGeometry>
        </mxCell>
        <mxCell id="5IJcJWC35ysio3x10tXy-314" value="" style="endArrow=none;html=1;rounded=0;exitX=0.74;exitY=0.37;exitDx=0;exitDy=0;exitPerimeter=0;" edge="1" parent="5IJcJWC35ysio3x10tXy-327">
          <mxGeometry width="50" height="50" relative="1" as="geometry">
            <mxPoint x="167.33333333333331" y="66.64444444444439" as="sourcePoint" />
            <mxPoint x="200" y="66.54999999999995" as="targetPoint" />
          </mxGeometry>
        </mxCell>
        <mxCell id="5IJcJWC35ysio3x10tXy-315" value="" style="endArrow=none;html=1;rounded=0;exitX=0.748;exitY=0.631;exitDx=0;exitDy=0;exitPerimeter=0;" edge="1" parent="5IJcJWC35ysio3x10tXy-327">
          <mxGeometry width="50" height="50" relative="1" as="geometry">
            <mxPoint x="167.91666666666669" y="77.75555555555547" as="sourcePoint" />
            <mxPoint x="200" y="77.66111111111104" as="targetPoint" />
          </mxGeometry>
        </mxCell>
        <mxCell id="5IJcJWC35ysio3x10tXy-316" value="" style="endArrow=none;html=1;rounded=0;exitX=0.75;exitY=0.371;exitDx=0;exitDy=0;exitPerimeter=0;" edge="1" parent="5IJcJWC35ysio3x10tXy-327" source="5IJcJWC35ysio3x10tXy-307">
          <mxGeometry width="50" height="50" relative="1" as="geometry">
            <mxPoint x="170.83333333333326" y="122.22222222222217" as="sourcePoint" />
            <mxPoint x="200" y="122.22222222222217" as="targetPoint" />
          </mxGeometry>
        </mxCell>
        <mxCell id="5IJcJWC35ysio3x10tXy-317" value="" style="endArrow=none;html=1;rounded=0;exitX=0.748;exitY=0.631;exitDx=0;exitDy=0;exitPerimeter=0;" edge="1" parent="5IJcJWC35ysio3x10tXy-327">
          <mxGeometry width="50" height="50" relative="1" as="geometry">
            <mxPoint x="167.91666666666669" y="133.4277777777777" as="sourcePoint" />
            <mxPoint x="200" y="133.33333333333326" as="targetPoint" />
          </mxGeometry>
        </mxCell>
        <mxCell id="5IJcJWC35ysio3x10tXy-318" value="" style="endArrow=classic;html=1;rounded=0;exitX=1;exitY=0.5;exitDx=0;exitDy=0;entryX=-0.011;entryY=0.497;entryDx=0;entryDy=0;entryPerimeter=0;" edge="1" parent="5IJcJWC35ysio3x10tXy-327" source="5IJcJWC35ysio3x10tXy-304" target="5IJcJWC35ysio3x10tXy-306">
          <mxGeometry width="50" height="50" relative="1" as="geometry">
            <mxPoint x="150" y="120" as="sourcePoint" />
            <mxPoint x="200" y="70" as="targetPoint" />
          </mxGeometry>
        </mxCell>
        <mxCell id="5IJcJWC35ysio3x10tXy-319" value="df_0018_*" style="text;strokeColor=none;align=center;fillColor=none;html=1;verticalAlign=middle;whiteSpace=wrap;rounded=0;container=0;" vertex="1" parent="5IJcJWC35ysio3x10tXy-327">
          <mxGeometry y="57.22000000000003" width="60" height="30" as="geometry" />
        </mxCell>
        <mxCell id="5IJcJWC35ysio3x10tXy-320" value="df_0022_*" style="text;strokeColor=none;align=center;fillColor=none;html=1;verticalAlign=middle;whiteSpace=wrap;rounded=0;container=0;" vertex="1" parent="5IJcJWC35ysio3x10tXy-327">
          <mxGeometry x="200" y="6.220000000000027" width="60" height="30" as="geometry" />
        </mxCell>
        <mxCell id="5IJcJWC35ysio3x10tXy-321" value="df_0029_*" style="text;strokeColor=none;align=center;fillColor=none;html=1;verticalAlign=middle;whiteSpace=wrap;rounded=0;container=0;" vertex="1" parent="5IJcJWC35ysio3x10tXy-327">
          <mxGeometry x="200" y="56" width="60" height="30" as="geometry" />
        </mxCell>
        <mxCell id="5IJcJWC35ysio3x10tXy-322" value="df_0048_*" style="text;strokeColor=none;align=center;fillColor=none;html=1;verticalAlign=middle;whiteSpace=wrap;rounded=0;container=0;" vertex="1" parent="5IJcJWC35ysio3x10tXy-327">
          <mxGeometry x="200" y="113" width="60" height="30" as="geometry" />
        </mxCell>
        <mxCell id="5IJcJWC35ysio3x10tXy-323" value="A" style="text;strokeColor=none;align=center;fillColor=none;html=1;verticalAlign=middle;whiteSpace=wrap;rounded=0;container=0;" vertex="1" parent="5IJcJWC35ysio3x10tXy-327">
          <mxGeometry x="122.16999999999996" y="7" width="60" height="30" as="geometry" />
        </mxCell>
        <mxCell id="5IJcJWC35ysio3x10tXy-324" value="B" style="text;strokeColor=none;align=center;fillColor=none;html=1;verticalAlign=middle;whiteSpace=wrap;rounded=0;container=0;" vertex="1" parent="5IJcJWC35ysio3x10tXy-327">
          <mxGeometry x="122.16999999999996" y="56.77999999999997" width="60" height="30" as="geometry" />
        </mxCell>
        <mxCell id="5IJcJWC35ysio3x10tXy-325" value="C" style="text;strokeColor=none;align=center;fillColor=none;html=1;verticalAlign=middle;whiteSpace=wrap;rounded=0;container=0;" vertex="1" parent="5IJcJWC35ysio3x10tXy-327">
          <mxGeometry x="122.16999999999996" y="112.77999999999997" width="60" height="30" as="geometry" />
        </mxCell>
        <mxCell id="5IJcJWC35ysio3x10tXy-326" value="11" style="text;strokeColor=none;align=center;fillColor=none;html=1;verticalAlign=middle;whiteSpace=wrap;rounded=0;container=0;" vertex="1" parent="5IJcJWC35ysio3x10tXy-327">
          <mxGeometry x="70" y="57" width="60" height="30" as="geometry" />
        </mxCell>
        <mxCell id="5IJcJWC35ysio3x10tXy-328" value="" style="group" vertex="1" connectable="0" parent="1">
          <mxGeometry x="342" y="770" width="260" height="150" as="geometry" />
        </mxCell>
        <mxCell id="5IJcJWC35ysio3x10tXy-280" value="" style="triangle;whiteSpace=wrap;html=1;container=0;" vertex="1" parent="5IJcJWC35ysio3x10tXy-328">
          <mxGeometry x="89.16666666666669" y="50" width="35" height="44.44444444444444" as="geometry" />
        </mxCell>
        <mxCell id="5IJcJWC35ysio3x10tXy-281" value="" style="triangle;whiteSpace=wrap;html=1;container=0;" vertex="1" parent="5IJcJWC35ysio3x10tXy-328">
          <mxGeometry x="141.66666666666669" width="35" height="44.44444444444444" as="geometry" />
        </mxCell>
        <mxCell id="5IJcJWC35ysio3x10tXy-282" value="" style="triangle;whiteSpace=wrap;html=1;container=0;" vertex="1" parent="5IJcJWC35ysio3x10tXy-328">
          <mxGeometry x="141.66666666666669" y="50" width="35" height="44.44444444444444" as="geometry" />
        </mxCell>
        <mxCell id="5IJcJWC35ysio3x10tXy-283" value="" style="triangle;whiteSpace=wrap;html=1;container=0;" vertex="1" parent="5IJcJWC35ysio3x10tXy-328">
          <mxGeometry x="141.66666666666669" y="105.55555555555554" width="35" height="44.44444444444444" as="geometry" />
        </mxCell>
        <mxCell id="5IJcJWC35ysio3x10tXy-284" value="" style="endArrow=classic;html=1;rounded=0;entryX=0;entryY=0.5;entryDx=0;entryDy=0;" edge="1" parent="5IJcJWC35ysio3x10tXy-328" target="5IJcJWC35ysio3x10tXy-283">
          <mxGeometry width="50" height="50" relative="1" as="geometry">
            <mxPoint x="124.16666666666669" y="72.22222222222217" as="sourcePoint" />
            <mxPoint x="270" y="238.8888888888889" as="targetPoint" />
            <Array as="points">
              <mxPoint x="130" y="72.22222222222217" />
              <mxPoint x="130" y="127.77777777777783" />
            </Array>
          </mxGeometry>
        </mxCell>
        <mxCell id="5IJcJWC35ysio3x10tXy-285" value="" style="endArrow=classic;html=1;rounded=0;entryX=0;entryY=0.5;entryDx=0;entryDy=0;" edge="1" parent="5IJcJWC35ysio3x10tXy-328" target="5IJcJWC35ysio3x10tXy-281">
          <mxGeometry width="50" height="50" relative="1" as="geometry">
            <mxPoint x="130" y="72.22222222222217" as="sourcePoint" />
            <mxPoint x="223.33333333333337" y="50" as="targetPoint" />
            <Array as="points">
              <mxPoint x="130" y="22.22222222222217" />
            </Array>
          </mxGeometry>
        </mxCell>
        <mxCell id="5IJcJWC35ysio3x10tXy-286" value="" style="endArrow=none;html=1;rounded=0;" edge="1" parent="5IJcJWC35ysio3x10tXy-328">
          <mxGeometry width="50" height="50" relative="1" as="geometry">
            <mxPoint x="60" y="66.66666666666663" as="sourcePoint" />
            <mxPoint x="89.16666666666669" y="66.66666666666663" as="targetPoint" />
          </mxGeometry>
        </mxCell>
        <mxCell id="5IJcJWC35ysio3x10tXy-287" value="" style="endArrow=none;html=1;rounded=0;" edge="1" parent="5IJcJWC35ysio3x10tXy-328">
          <mxGeometry width="50" height="50" relative="1" as="geometry">
            <mxPoint x="60" y="77.77777777777783" as="sourcePoint" />
            <mxPoint x="89.16666666666669" y="77.77777777777783" as="targetPoint" />
          </mxGeometry>
        </mxCell>
        <mxCell id="5IJcJWC35ysio3x10tXy-288" value="" style="endArrow=none;html=1;rounded=0;exitX=0.74;exitY=0.37;exitDx=0;exitDy=0;exitPerimeter=0;" edge="1" parent="5IJcJWC35ysio3x10tXy-328" source="5IJcJWC35ysio3x10tXy-281">
          <mxGeometry width="50" height="50" relative="1" as="geometry">
            <mxPoint x="170.83333333333326" y="16.572222222222194" as="sourcePoint" />
            <mxPoint x="200" y="16.572222222222194" as="targetPoint" />
          </mxGeometry>
        </mxCell>
        <mxCell id="5IJcJWC35ysio3x10tXy-289" value="" style="endArrow=none;html=1;rounded=0;exitX=0.748;exitY=0.631;exitDx=0;exitDy=0;exitPerimeter=0;" edge="1" parent="5IJcJWC35ysio3x10tXy-328" source="5IJcJWC35ysio3x10tXy-281">
          <mxGeometry width="50" height="50" relative="1" as="geometry">
            <mxPoint x="170.83333333333326" y="27.683333333333394" as="sourcePoint" />
            <mxPoint x="200" y="27.683333333333394" as="targetPoint" />
          </mxGeometry>
        </mxCell>
        <mxCell id="5IJcJWC35ysio3x10tXy-290" value="" style="endArrow=none;html=1;rounded=0;exitX=0.74;exitY=0.37;exitDx=0;exitDy=0;exitPerimeter=0;" edge="1" parent="5IJcJWC35ysio3x10tXy-328">
          <mxGeometry width="50" height="50" relative="1" as="geometry">
            <mxPoint x="167.33333333333331" y="66.64444444444439" as="sourcePoint" />
            <mxPoint x="200" y="66.54999999999995" as="targetPoint" />
          </mxGeometry>
        </mxCell>
        <mxCell id="5IJcJWC35ysio3x10tXy-291" value="" style="endArrow=none;html=1;rounded=0;exitX=0.748;exitY=0.631;exitDx=0;exitDy=0;exitPerimeter=0;" edge="1" parent="5IJcJWC35ysio3x10tXy-328">
          <mxGeometry width="50" height="50" relative="1" as="geometry">
            <mxPoint x="167.91666666666669" y="77.75555555555547" as="sourcePoint" />
            <mxPoint x="200" y="77.66111111111104" as="targetPoint" />
          </mxGeometry>
        </mxCell>
        <mxCell id="5IJcJWC35ysio3x10tXy-292" value="" style="endArrow=none;html=1;rounded=0;exitX=0.75;exitY=0.371;exitDx=0;exitDy=0;exitPerimeter=0;" edge="1" parent="5IJcJWC35ysio3x10tXy-328" source="5IJcJWC35ysio3x10tXy-283">
          <mxGeometry width="50" height="50" relative="1" as="geometry">
            <mxPoint x="170.83333333333326" y="122.22222222222217" as="sourcePoint" />
            <mxPoint x="200" y="122.22222222222217" as="targetPoint" />
          </mxGeometry>
        </mxCell>
        <mxCell id="5IJcJWC35ysio3x10tXy-293" value="" style="endArrow=none;html=1;rounded=0;exitX=0.748;exitY=0.631;exitDx=0;exitDy=0;exitPerimeter=0;" edge="1" parent="5IJcJWC35ysio3x10tXy-328">
          <mxGeometry width="50" height="50" relative="1" as="geometry">
            <mxPoint x="167.91666666666669" y="133.4277777777777" as="sourcePoint" />
            <mxPoint x="200" y="133.33333333333326" as="targetPoint" />
          </mxGeometry>
        </mxCell>
        <mxCell id="5IJcJWC35ysio3x10tXy-294" value="" style="endArrow=classic;html=1;rounded=0;exitX=1;exitY=0.5;exitDx=0;exitDy=0;entryX=-0.011;entryY=0.497;entryDx=0;entryDy=0;entryPerimeter=0;" edge="1" parent="5IJcJWC35ysio3x10tXy-328" source="5IJcJWC35ysio3x10tXy-280" target="5IJcJWC35ysio3x10tXy-282">
          <mxGeometry width="50" height="50" relative="1" as="geometry">
            <mxPoint x="150" y="120" as="sourcePoint" />
            <mxPoint x="200" y="70" as="targetPoint" />
          </mxGeometry>
        </mxCell>
        <mxCell id="5IJcJWC35ysio3x10tXy-295" value="df_0010_*" style="text;strokeColor=none;align=center;fillColor=none;html=1;verticalAlign=middle;whiteSpace=wrap;rounded=0;container=0;" vertex="1" parent="5IJcJWC35ysio3x10tXy-328">
          <mxGeometry y="57.22000000000003" width="60" height="30" as="geometry" />
        </mxCell>
        <mxCell id="5IJcJWC35ysio3x10tXy-296" value="df_o_*_20" style="text;strokeColor=none;align=center;fillColor=none;html=1;verticalAlign=middle;whiteSpace=wrap;rounded=0;container=0;" vertex="1" parent="5IJcJWC35ysio3x10tXy-328">
          <mxGeometry x="200" y="6.220000000000027" width="60" height="30" as="geometry" />
        </mxCell>
        <mxCell id="5IJcJWC35ysio3x10tXy-297" value="df_0014_*" style="text;strokeColor=none;align=center;fillColor=none;html=1;verticalAlign=middle;whiteSpace=wrap;rounded=0;container=0;" vertex="1" parent="5IJcJWC35ysio3x10tXy-328">
          <mxGeometry x="200" y="56" width="60" height="30" as="geometry" />
        </mxCell>
        <mxCell id="5IJcJWC35ysio3x10tXy-298" value="df_0016_*" style="text;strokeColor=none;align=center;fillColor=none;html=1;verticalAlign=middle;whiteSpace=wrap;rounded=0;container=0;" vertex="1" parent="5IJcJWC35ysio3x10tXy-328">
          <mxGeometry x="200" y="113" width="60" height="30" as="geometry" />
        </mxCell>
        <mxCell id="5IJcJWC35ysio3x10tXy-299" value="A" style="text;strokeColor=none;align=center;fillColor=none;html=1;verticalAlign=middle;whiteSpace=wrap;rounded=0;container=0;" vertex="1" parent="5IJcJWC35ysio3x10tXy-328">
          <mxGeometry x="122.16999999999996" y="7" width="60" height="30" as="geometry" />
        </mxCell>
        <mxCell id="5IJcJWC35ysio3x10tXy-300" value="B" style="text;strokeColor=none;align=center;fillColor=none;html=1;verticalAlign=middle;whiteSpace=wrap;rounded=0;container=0;" vertex="1" parent="5IJcJWC35ysio3x10tXy-328">
          <mxGeometry x="122.16999999999996" y="56.77999999999997" width="60" height="30" as="geometry" />
        </mxCell>
        <mxCell id="5IJcJWC35ysio3x10tXy-301" value="C" style="text;strokeColor=none;align=center;fillColor=none;html=1;verticalAlign=middle;whiteSpace=wrap;rounded=0;container=0;" vertex="1" parent="5IJcJWC35ysio3x10tXy-328">
          <mxGeometry x="122.16999999999996" y="112.77999999999997" width="60" height="30" as="geometry" />
        </mxCell>
        <mxCell id="5IJcJWC35ysio3x10tXy-302" value="10" style="text;strokeColor=none;align=center;fillColor=none;html=1;verticalAlign=middle;whiteSpace=wrap;rounded=0;container=0;" vertex="1" parent="5IJcJWC35ysio3x10tXy-328">
          <mxGeometry x="70" y="57" width="60" height="30" as="geometry" />
        </mxCell>
        <mxCell id="5IJcJWC35ysio3x10tXy-329" value="" style="group" vertex="1" connectable="0" parent="1">
          <mxGeometry x="342" y="590" width="260" height="150" as="geometry" />
        </mxCell>
        <mxCell id="5IJcJWC35ysio3x10tXy-256" value="" style="triangle;whiteSpace=wrap;html=1;container=0;" vertex="1" parent="5IJcJWC35ysio3x10tXy-329">
          <mxGeometry x="89.16666666666669" y="50" width="35" height="44.44444444444444" as="geometry" />
        </mxCell>
        <mxCell id="5IJcJWC35ysio3x10tXy-257" value="" style="triangle;whiteSpace=wrap;html=1;container=0;" vertex="1" parent="5IJcJWC35ysio3x10tXy-329">
          <mxGeometry x="141.66666666666669" width="35" height="44.44444444444444" as="geometry" />
        </mxCell>
        <mxCell id="5IJcJWC35ysio3x10tXy-258" value="" style="triangle;whiteSpace=wrap;html=1;container=0;" vertex="1" parent="5IJcJWC35ysio3x10tXy-329">
          <mxGeometry x="141.66666666666669" y="50" width="35" height="44.44444444444444" as="geometry" />
        </mxCell>
        <mxCell id="5IJcJWC35ysio3x10tXy-259" value="" style="triangle;whiteSpace=wrap;html=1;container=0;" vertex="1" parent="5IJcJWC35ysio3x10tXy-329">
          <mxGeometry x="141.66666666666669" y="105.55555555555554" width="35" height="44.44444444444444" as="geometry" />
        </mxCell>
        <mxCell id="5IJcJWC35ysio3x10tXy-260" value="" style="endArrow=classic;html=1;rounded=0;entryX=0;entryY=0.5;entryDx=0;entryDy=0;" edge="1" parent="5IJcJWC35ysio3x10tXy-329" target="5IJcJWC35ysio3x10tXy-259">
          <mxGeometry width="50" height="50" relative="1" as="geometry">
            <mxPoint x="124.16666666666669" y="72.22222222222217" as="sourcePoint" />
            <mxPoint x="270" y="238.8888888888889" as="targetPoint" />
            <Array as="points">
              <mxPoint x="130" y="72.22222222222217" />
              <mxPoint x="130" y="127.77777777777783" />
            </Array>
          </mxGeometry>
        </mxCell>
        <mxCell id="5IJcJWC35ysio3x10tXy-261" value="" style="endArrow=classic;html=1;rounded=0;entryX=0;entryY=0.5;entryDx=0;entryDy=0;" edge="1" parent="5IJcJWC35ysio3x10tXy-329" target="5IJcJWC35ysio3x10tXy-257">
          <mxGeometry width="50" height="50" relative="1" as="geometry">
            <mxPoint x="130" y="72.22222222222217" as="sourcePoint" />
            <mxPoint x="223.33333333333337" y="50" as="targetPoint" />
            <Array as="points">
              <mxPoint x="130" y="22.22222222222217" />
            </Array>
          </mxGeometry>
        </mxCell>
        <mxCell id="5IJcJWC35ysio3x10tXy-262" value="" style="endArrow=none;html=1;rounded=0;" edge="1" parent="5IJcJWC35ysio3x10tXy-329">
          <mxGeometry width="50" height="50" relative="1" as="geometry">
            <mxPoint x="60" y="66.66666666666663" as="sourcePoint" />
            <mxPoint x="89.16666666666669" y="66.66666666666663" as="targetPoint" />
          </mxGeometry>
        </mxCell>
        <mxCell id="5IJcJWC35ysio3x10tXy-263" value="" style="endArrow=none;html=1;rounded=0;" edge="1" parent="5IJcJWC35ysio3x10tXy-329">
          <mxGeometry width="50" height="50" relative="1" as="geometry">
            <mxPoint x="60" y="77.77777777777783" as="sourcePoint" />
            <mxPoint x="89.16666666666669" y="77.77777777777783" as="targetPoint" />
          </mxGeometry>
        </mxCell>
        <mxCell id="5IJcJWC35ysio3x10tXy-264" value="" style="endArrow=none;html=1;rounded=0;exitX=0.74;exitY=0.37;exitDx=0;exitDy=0;exitPerimeter=0;" edge="1" parent="5IJcJWC35ysio3x10tXy-329" source="5IJcJWC35ysio3x10tXy-257">
          <mxGeometry width="50" height="50" relative="1" as="geometry">
            <mxPoint x="170.83333333333326" y="16.572222222222194" as="sourcePoint" />
            <mxPoint x="200" y="16.572222222222194" as="targetPoint" />
          </mxGeometry>
        </mxCell>
        <mxCell id="5IJcJWC35ysio3x10tXy-265" value="" style="endArrow=none;html=1;rounded=0;exitX=0.748;exitY=0.631;exitDx=0;exitDy=0;exitPerimeter=0;" edge="1" parent="5IJcJWC35ysio3x10tXy-329" source="5IJcJWC35ysio3x10tXy-257">
          <mxGeometry width="50" height="50" relative="1" as="geometry">
            <mxPoint x="170.83333333333326" y="27.683333333333394" as="sourcePoint" />
            <mxPoint x="200" y="27.683333333333394" as="targetPoint" />
          </mxGeometry>
        </mxCell>
        <mxCell id="5IJcJWC35ysio3x10tXy-266" value="" style="endArrow=none;html=1;rounded=0;exitX=0.74;exitY=0.37;exitDx=0;exitDy=0;exitPerimeter=0;" edge="1" parent="5IJcJWC35ysio3x10tXy-329">
          <mxGeometry width="50" height="50" relative="1" as="geometry">
            <mxPoint x="167.33333333333331" y="66.64444444444439" as="sourcePoint" />
            <mxPoint x="200" y="66.54999999999995" as="targetPoint" />
          </mxGeometry>
        </mxCell>
        <mxCell id="5IJcJWC35ysio3x10tXy-267" value="" style="endArrow=none;html=1;rounded=0;exitX=0.748;exitY=0.631;exitDx=0;exitDy=0;exitPerimeter=0;" edge="1" parent="5IJcJWC35ysio3x10tXy-329">
          <mxGeometry width="50" height="50" relative="1" as="geometry">
            <mxPoint x="167.91666666666669" y="77.75555555555547" as="sourcePoint" />
            <mxPoint x="200" y="77.66111111111104" as="targetPoint" />
          </mxGeometry>
        </mxCell>
        <mxCell id="5IJcJWC35ysio3x10tXy-268" value="" style="endArrow=none;html=1;rounded=0;exitX=0.75;exitY=0.371;exitDx=0;exitDy=0;exitPerimeter=0;" edge="1" parent="5IJcJWC35ysio3x10tXy-329" source="5IJcJWC35ysio3x10tXy-259">
          <mxGeometry width="50" height="50" relative="1" as="geometry">
            <mxPoint x="170.83333333333326" y="122.22222222222217" as="sourcePoint" />
            <mxPoint x="200" y="122.22222222222217" as="targetPoint" />
          </mxGeometry>
        </mxCell>
        <mxCell id="5IJcJWC35ysio3x10tXy-269" value="" style="endArrow=none;html=1;rounded=0;exitX=0.748;exitY=0.631;exitDx=0;exitDy=0;exitPerimeter=0;" edge="1" parent="5IJcJWC35ysio3x10tXy-329">
          <mxGeometry width="50" height="50" relative="1" as="geometry">
            <mxPoint x="167.91666666666669" y="133.4277777777777" as="sourcePoint" />
            <mxPoint x="200" y="133.33333333333326" as="targetPoint" />
          </mxGeometry>
        </mxCell>
        <mxCell id="5IJcJWC35ysio3x10tXy-270" value="" style="endArrow=classic;html=1;rounded=0;exitX=1;exitY=0.5;exitDx=0;exitDy=0;entryX=-0.011;entryY=0.497;entryDx=0;entryDy=0;entryPerimeter=0;" edge="1" parent="5IJcJWC35ysio3x10tXy-329" source="5IJcJWC35ysio3x10tXy-256" target="5IJcJWC35ysio3x10tXy-258">
          <mxGeometry width="50" height="50" relative="1" as="geometry">
            <mxPoint x="150" y="120" as="sourcePoint" />
            <mxPoint x="200" y="70" as="targetPoint" />
          </mxGeometry>
        </mxCell>
        <mxCell id="5IJcJWC35ysio3x10tXy-271" value="df_0007_*" style="text;strokeColor=none;align=center;fillColor=none;html=1;verticalAlign=middle;whiteSpace=wrap;rounded=0;container=0;" vertex="1" parent="5IJcJWC35ysio3x10tXy-329">
          <mxGeometry y="57.22000000000003" width="60" height="30" as="geometry" />
        </mxCell>
        <mxCell id="5IJcJWC35ysio3x10tXy-272" value="df_o_*_15" style="text;strokeColor=none;align=center;fillColor=none;html=1;verticalAlign=middle;whiteSpace=wrap;rounded=0;container=0;" vertex="1" parent="5IJcJWC35ysio3x10tXy-329">
          <mxGeometry x="200" y="6.220000000000027" width="60" height="30" as="geometry" />
        </mxCell>
        <mxCell id="5IJcJWC35ysio3x10tXy-273" value="df_o_*_16" style="text;strokeColor=none;align=center;fillColor=none;html=1;verticalAlign=middle;whiteSpace=wrap;rounded=0;container=0;" vertex="1" parent="5IJcJWC35ysio3x10tXy-329">
          <mxGeometry x="200" y="56" width="60" height="30" as="geometry" />
        </mxCell>
        <mxCell id="5IJcJWC35ysio3x10tXy-274" value="df_o_*_17" style="text;strokeColor=none;align=center;fillColor=none;html=1;verticalAlign=middle;whiteSpace=wrap;rounded=0;container=0;" vertex="1" parent="5IJcJWC35ysio3x10tXy-329">
          <mxGeometry x="200" y="113" width="60" height="30" as="geometry" />
        </mxCell>
        <mxCell id="5IJcJWC35ysio3x10tXy-275" value="A" style="text;strokeColor=none;align=center;fillColor=none;html=1;verticalAlign=middle;whiteSpace=wrap;rounded=0;container=0;" vertex="1" parent="5IJcJWC35ysio3x10tXy-329">
          <mxGeometry x="122.16999999999996" y="7" width="60" height="30" as="geometry" />
        </mxCell>
        <mxCell id="5IJcJWC35ysio3x10tXy-276" value="B" style="text;strokeColor=none;align=center;fillColor=none;html=1;verticalAlign=middle;whiteSpace=wrap;rounded=0;container=0;" vertex="1" parent="5IJcJWC35ysio3x10tXy-329">
          <mxGeometry x="122.16999999999996" y="56.77999999999997" width="60" height="30" as="geometry" />
        </mxCell>
        <mxCell id="5IJcJWC35ysio3x10tXy-277" value="C" style="text;strokeColor=none;align=center;fillColor=none;html=1;verticalAlign=middle;whiteSpace=wrap;rounded=0;container=0;" vertex="1" parent="5IJcJWC35ysio3x10tXy-329">
          <mxGeometry x="122.16999999999996" y="112.77999999999997" width="60" height="30" as="geometry" />
        </mxCell>
        <mxCell id="5IJcJWC35ysio3x10tXy-278" value="9" style="text;strokeColor=none;align=center;fillColor=none;html=1;verticalAlign=middle;whiteSpace=wrap;rounded=0;container=0;" vertex="1" parent="5IJcJWC35ysio3x10tXy-329">
          <mxGeometry x="70" y="57" width="60" height="30" as="geometry" />
        </mxCell>
        <mxCell id="5IJcJWC35ysio3x10tXy-330" value="" style="group" vertex="1" connectable="0" parent="1">
          <mxGeometry x="342" y="410" width="260" height="150" as="geometry" />
        </mxCell>
        <mxCell id="5IJcJWC35ysio3x10tXy-231" value="" style="triangle;whiteSpace=wrap;html=1;container=0;" vertex="1" parent="5IJcJWC35ysio3x10tXy-330">
          <mxGeometry x="89.16666666666669" y="50" width="35" height="44.44444444444444" as="geometry" />
        </mxCell>
        <mxCell id="5IJcJWC35ysio3x10tXy-232" value="" style="triangle;whiteSpace=wrap;html=1;container=0;" vertex="1" parent="5IJcJWC35ysio3x10tXy-330">
          <mxGeometry x="141.66666666666669" width="35" height="44.44444444444444" as="geometry" />
        </mxCell>
        <mxCell id="5IJcJWC35ysio3x10tXy-233" value="" style="triangle;whiteSpace=wrap;html=1;container=0;" vertex="1" parent="5IJcJWC35ysio3x10tXy-330">
          <mxGeometry x="141.66666666666669" y="50" width="35" height="44.44444444444444" as="geometry" />
        </mxCell>
        <mxCell id="5IJcJWC35ysio3x10tXy-234" value="" style="triangle;whiteSpace=wrap;html=1;container=0;" vertex="1" parent="5IJcJWC35ysio3x10tXy-330">
          <mxGeometry x="141.66666666666669" y="105.55555555555554" width="35" height="44.44444444444444" as="geometry" />
        </mxCell>
        <mxCell id="5IJcJWC35ysio3x10tXy-235" value="" style="endArrow=classic;html=1;rounded=0;entryX=0;entryY=0.5;entryDx=0;entryDy=0;" edge="1" parent="5IJcJWC35ysio3x10tXy-330" target="5IJcJWC35ysio3x10tXy-234">
          <mxGeometry width="50" height="50" relative="1" as="geometry">
            <mxPoint x="124.16666666666669" y="72.22222222222223" as="sourcePoint" />
            <mxPoint x="270" y="238.8888888888889" as="targetPoint" />
            <Array as="points">
              <mxPoint x="130" y="72.22222222222223" />
              <mxPoint x="130" y="127.77777777777783" />
            </Array>
          </mxGeometry>
        </mxCell>
        <mxCell id="5IJcJWC35ysio3x10tXy-236" value="" style="endArrow=classic;html=1;rounded=0;entryX=0;entryY=0.5;entryDx=0;entryDy=0;" edge="1" parent="5IJcJWC35ysio3x10tXy-330" target="5IJcJWC35ysio3x10tXy-232">
          <mxGeometry width="50" height="50" relative="1" as="geometry">
            <mxPoint x="130" y="72.22222222222223" as="sourcePoint" />
            <mxPoint x="223.33333333333337" y="50" as="targetPoint" />
            <Array as="points">
              <mxPoint x="130" y="22.22222222222223" />
            </Array>
          </mxGeometry>
        </mxCell>
        <mxCell id="5IJcJWC35ysio3x10tXy-237" value="" style="endArrow=none;html=1;rounded=0;" edge="1" parent="5IJcJWC35ysio3x10tXy-330">
          <mxGeometry width="50" height="50" relative="1" as="geometry">
            <mxPoint x="60" y="66.66666666666663" as="sourcePoint" />
            <mxPoint x="89.16666666666669" y="66.66666666666663" as="targetPoint" />
          </mxGeometry>
        </mxCell>
        <mxCell id="5IJcJWC35ysio3x10tXy-238" value="" style="endArrow=none;html=1;rounded=0;" edge="1" parent="5IJcJWC35ysio3x10tXy-330">
          <mxGeometry width="50" height="50" relative="1" as="geometry">
            <mxPoint x="60" y="77.77777777777777" as="sourcePoint" />
            <mxPoint x="89.16666666666669" y="77.77777777777777" as="targetPoint" />
          </mxGeometry>
        </mxCell>
        <mxCell id="5IJcJWC35ysio3x10tXy-239" value="" style="endArrow=none;html=1;rounded=0;exitX=0.74;exitY=0.37;exitDx=0;exitDy=0;exitPerimeter=0;" edge="1" parent="5IJcJWC35ysio3x10tXy-330" source="5IJcJWC35ysio3x10tXy-232">
          <mxGeometry width="50" height="50" relative="1" as="geometry">
            <mxPoint x="170.83333333333326" y="16.572222222222194" as="sourcePoint" />
            <mxPoint x="200" y="16.572222222222194" as="targetPoint" />
          </mxGeometry>
        </mxCell>
        <mxCell id="5IJcJWC35ysio3x10tXy-240" value="" style="endArrow=none;html=1;rounded=0;exitX=0.748;exitY=0.631;exitDx=0;exitDy=0;exitPerimeter=0;" edge="1" parent="5IJcJWC35ysio3x10tXy-330" source="5IJcJWC35ysio3x10tXy-232">
          <mxGeometry width="50" height="50" relative="1" as="geometry">
            <mxPoint x="170.83333333333326" y="27.683333333333337" as="sourcePoint" />
            <mxPoint x="200" y="27.683333333333337" as="targetPoint" />
          </mxGeometry>
        </mxCell>
        <mxCell id="5IJcJWC35ysio3x10tXy-241" value="" style="endArrow=none;html=1;rounded=0;exitX=0.74;exitY=0.37;exitDx=0;exitDy=0;exitPerimeter=0;" edge="1" parent="5IJcJWC35ysio3x10tXy-330">
          <mxGeometry width="50" height="50" relative="1" as="geometry">
            <mxPoint x="167.33333333333331" y="66.64444444444439" as="sourcePoint" />
            <mxPoint x="200" y="66.54999999999995" as="targetPoint" />
          </mxGeometry>
        </mxCell>
        <mxCell id="5IJcJWC35ysio3x10tXy-242" value="" style="endArrow=none;html=1;rounded=0;exitX=0.748;exitY=0.631;exitDx=0;exitDy=0;exitPerimeter=0;" edge="1" parent="5IJcJWC35ysio3x10tXy-330">
          <mxGeometry width="50" height="50" relative="1" as="geometry">
            <mxPoint x="167.91666666666669" y="77.75555555555553" as="sourcePoint" />
            <mxPoint x="200" y="77.6611111111111" as="targetPoint" />
          </mxGeometry>
        </mxCell>
        <mxCell id="5IJcJWC35ysio3x10tXy-243" value="" style="endArrow=none;html=1;rounded=0;exitX=0.75;exitY=0.371;exitDx=0;exitDy=0;exitPerimeter=0;" edge="1" parent="5IJcJWC35ysio3x10tXy-330" source="5IJcJWC35ysio3x10tXy-234">
          <mxGeometry width="50" height="50" relative="1" as="geometry">
            <mxPoint x="170.83333333333326" y="122.22222222222217" as="sourcePoint" />
            <mxPoint x="200" y="122.22222222222217" as="targetPoint" />
          </mxGeometry>
        </mxCell>
        <mxCell id="5IJcJWC35ysio3x10tXy-244" value="" style="endArrow=none;html=1;rounded=0;exitX=0.748;exitY=0.631;exitDx=0;exitDy=0;exitPerimeter=0;" edge="1" parent="5IJcJWC35ysio3x10tXy-330">
          <mxGeometry width="50" height="50" relative="1" as="geometry">
            <mxPoint x="167.91666666666669" y="133.4277777777777" as="sourcePoint" />
            <mxPoint x="200" y="133.33333333333326" as="targetPoint" />
          </mxGeometry>
        </mxCell>
        <mxCell id="5IJcJWC35ysio3x10tXy-245" value="" style="endArrow=classic;html=1;rounded=0;exitX=1;exitY=0.5;exitDx=0;exitDy=0;entryX=-0.011;entryY=0.497;entryDx=0;entryDy=0;entryPerimeter=0;" edge="1" parent="5IJcJWC35ysio3x10tXy-330" source="5IJcJWC35ysio3x10tXy-231" target="5IJcJWC35ysio3x10tXy-233">
          <mxGeometry width="50" height="50" relative="1" as="geometry">
            <mxPoint x="150" y="120" as="sourcePoint" />
            <mxPoint x="200" y="70" as="targetPoint" />
          </mxGeometry>
        </mxCell>
        <mxCell id="5IJcJWC35ysio3x10tXy-246" value="df_0004_*" style="text;strokeColor=none;align=center;fillColor=none;html=1;verticalAlign=middle;whiteSpace=wrap;rounded=0;container=0;" vertex="1" parent="5IJcJWC35ysio3x10tXy-330">
          <mxGeometry y="57.22000000000003" width="60" height="30" as="geometry" />
        </mxCell>
        <mxCell id="5IJcJWC35ysio3x10tXy-247" value="df_o_*_10" style="text;strokeColor=none;align=center;fillColor=none;html=1;verticalAlign=middle;whiteSpace=wrap;rounded=0;container=0;" vertex="1" parent="5IJcJWC35ysio3x10tXy-330">
          <mxGeometry x="200" y="6.220000000000027" width="60" height="30" as="geometry" />
        </mxCell>
        <mxCell id="5IJcJWC35ysio3x10tXy-248" value="df_o_*_11" style="text;strokeColor=none;align=center;fillColor=none;html=1;verticalAlign=middle;whiteSpace=wrap;rounded=0;container=0;" vertex="1" parent="5IJcJWC35ysio3x10tXy-330">
          <mxGeometry x="200" y="56" width="60" height="30" as="geometry" />
        </mxCell>
        <mxCell id="5IJcJWC35ysio3x10tXy-249" value="df_o_*_12" style="text;strokeColor=none;align=center;fillColor=none;html=1;verticalAlign=middle;whiteSpace=wrap;rounded=0;container=0;" vertex="1" parent="5IJcJWC35ysio3x10tXy-330">
          <mxGeometry x="200" y="113" width="60" height="30" as="geometry" />
        </mxCell>
        <mxCell id="5IJcJWC35ysio3x10tXy-250" value="A" style="text;strokeColor=none;align=center;fillColor=none;html=1;verticalAlign=middle;whiteSpace=wrap;rounded=0;container=0;" vertex="1" parent="5IJcJWC35ysio3x10tXy-330">
          <mxGeometry x="122.16999999999996" y="7" width="60" height="30" as="geometry" />
        </mxCell>
        <mxCell id="5IJcJWC35ysio3x10tXy-251" value="B" style="text;strokeColor=none;align=center;fillColor=none;html=1;verticalAlign=middle;whiteSpace=wrap;rounded=0;container=0;" vertex="1" parent="5IJcJWC35ysio3x10tXy-330">
          <mxGeometry x="122.16999999999996" y="56.77999999999997" width="60" height="30" as="geometry" />
        </mxCell>
        <mxCell id="5IJcJWC35ysio3x10tXy-252" value="C" style="text;strokeColor=none;align=center;fillColor=none;html=1;verticalAlign=middle;whiteSpace=wrap;rounded=0;container=0;" vertex="1" parent="5IJcJWC35ysio3x10tXy-330">
          <mxGeometry x="122.16999999999996" y="112.77999999999997" width="60" height="30" as="geometry" />
        </mxCell>
        <mxCell id="5IJcJWC35ysio3x10tXy-253" value="8" style="text;strokeColor=none;align=center;fillColor=none;html=1;verticalAlign=middle;whiteSpace=wrap;rounded=0;container=0;" vertex="1" parent="5IJcJWC35ysio3x10tXy-330">
          <mxGeometry x="70" y="57" width="60" height="30" as="geometry" />
        </mxCell>
        <mxCell id="5IJcJWC35ysio3x10tXy-331" value="" style="group" vertex="1" connectable="0" parent="1">
          <mxGeometry x="342" y="230" width="260" height="150" as="geometry" />
        </mxCell>
        <mxCell id="5IJcJWC35ysio3x10tXy-207" value="" style="triangle;whiteSpace=wrap;html=1;container=0;" vertex="1" parent="5IJcJWC35ysio3x10tXy-331">
          <mxGeometry x="89.16666666666669" y="50" width="35" height="44.44444444444444" as="geometry" />
        </mxCell>
        <mxCell id="5IJcJWC35ysio3x10tXy-208" value="" style="triangle;whiteSpace=wrap;html=1;container=0;" vertex="1" parent="5IJcJWC35ysio3x10tXy-331">
          <mxGeometry x="141.66666666666669" width="35" height="44.44444444444444" as="geometry" />
        </mxCell>
        <mxCell id="5IJcJWC35ysio3x10tXy-209" value="" style="triangle;whiteSpace=wrap;html=1;container=0;" vertex="1" parent="5IJcJWC35ysio3x10tXy-331">
          <mxGeometry x="141.66666666666669" y="50" width="35" height="44.44444444444444" as="geometry" />
        </mxCell>
        <mxCell id="5IJcJWC35ysio3x10tXy-210" value="" style="triangle;whiteSpace=wrap;html=1;container=0;" vertex="1" parent="5IJcJWC35ysio3x10tXy-331">
          <mxGeometry x="141.66666666666669" y="105.55555555555554" width="35" height="44.44444444444444" as="geometry" />
        </mxCell>
        <mxCell id="5IJcJWC35ysio3x10tXy-211" value="" style="endArrow=classic;html=1;rounded=0;entryX=0;entryY=0.5;entryDx=0;entryDy=0;" edge="1" parent="5IJcJWC35ysio3x10tXy-331" target="5IJcJWC35ysio3x10tXy-210">
          <mxGeometry width="50" height="50" relative="1" as="geometry">
            <mxPoint x="124.16666666666669" y="72.22222222222223" as="sourcePoint" />
            <mxPoint x="270" y="238.88888888888886" as="targetPoint" />
            <Array as="points">
              <mxPoint x="130" y="72.22222222222223" />
              <mxPoint x="130" y="127.77777777777777" />
            </Array>
          </mxGeometry>
        </mxCell>
        <mxCell id="5IJcJWC35ysio3x10tXy-212" value="" style="endArrow=classic;html=1;rounded=0;entryX=0;entryY=0.5;entryDx=0;entryDy=0;" edge="1" parent="5IJcJWC35ysio3x10tXy-331" target="5IJcJWC35ysio3x10tXy-208">
          <mxGeometry width="50" height="50" relative="1" as="geometry">
            <mxPoint x="130" y="72.22222222222223" as="sourcePoint" />
            <mxPoint x="223.33333333333337" y="50" as="targetPoint" />
            <Array as="points">
              <mxPoint x="130" y="22.22222222222223" />
            </Array>
          </mxGeometry>
        </mxCell>
        <mxCell id="5IJcJWC35ysio3x10tXy-213" value="" style="endArrow=none;html=1;rounded=0;" edge="1" parent="5IJcJWC35ysio3x10tXy-331">
          <mxGeometry width="50" height="50" relative="1" as="geometry">
            <mxPoint x="60" y="66.66666666666663" as="sourcePoint" />
            <mxPoint x="89.16666666666669" y="66.66666666666663" as="targetPoint" />
          </mxGeometry>
        </mxCell>
        <mxCell id="5IJcJWC35ysio3x10tXy-214" value="" style="endArrow=none;html=1;rounded=0;" edge="1" parent="5IJcJWC35ysio3x10tXy-331">
          <mxGeometry width="50" height="50" relative="1" as="geometry">
            <mxPoint x="60" y="77.77777777777777" as="sourcePoint" />
            <mxPoint x="89.16666666666669" y="77.77777777777777" as="targetPoint" />
          </mxGeometry>
        </mxCell>
        <mxCell id="5IJcJWC35ysio3x10tXy-215" value="" style="endArrow=none;html=1;rounded=0;exitX=0.74;exitY=0.37;exitDx=0;exitDy=0;exitPerimeter=0;" edge="1" parent="5IJcJWC35ysio3x10tXy-331" source="5IJcJWC35ysio3x10tXy-208">
          <mxGeometry width="50" height="50" relative="1" as="geometry">
            <mxPoint x="170.83333333333326" y="16.572222222222223" as="sourcePoint" />
            <mxPoint x="200" y="16.572222222222223" as="targetPoint" />
          </mxGeometry>
        </mxCell>
        <mxCell id="5IJcJWC35ysio3x10tXy-216" value="" style="endArrow=none;html=1;rounded=0;exitX=0.748;exitY=0.631;exitDx=0;exitDy=0;exitPerimeter=0;" edge="1" parent="5IJcJWC35ysio3x10tXy-331" source="5IJcJWC35ysio3x10tXy-208">
          <mxGeometry width="50" height="50" relative="1" as="geometry">
            <mxPoint x="170.83333333333326" y="27.683333333333337" as="sourcePoint" />
            <mxPoint x="200" y="27.683333333333337" as="targetPoint" />
          </mxGeometry>
        </mxCell>
        <mxCell id="5IJcJWC35ysio3x10tXy-217" value="" style="endArrow=none;html=1;rounded=0;exitX=0.74;exitY=0.37;exitDx=0;exitDy=0;exitPerimeter=0;" edge="1" parent="5IJcJWC35ysio3x10tXy-331">
          <mxGeometry width="50" height="50" relative="1" as="geometry">
            <mxPoint x="167.33333333333331" y="66.64444444444439" as="sourcePoint" />
            <mxPoint x="200" y="66.54999999999995" as="targetPoint" />
          </mxGeometry>
        </mxCell>
        <mxCell id="5IJcJWC35ysio3x10tXy-218" value="" style="endArrow=none;html=1;rounded=0;exitX=0.748;exitY=0.631;exitDx=0;exitDy=0;exitPerimeter=0;" edge="1" parent="5IJcJWC35ysio3x10tXy-331">
          <mxGeometry width="50" height="50" relative="1" as="geometry">
            <mxPoint x="167.91666666666669" y="77.75555555555553" as="sourcePoint" />
            <mxPoint x="200" y="77.6611111111111" as="targetPoint" />
          </mxGeometry>
        </mxCell>
        <mxCell id="5IJcJWC35ysio3x10tXy-219" value="" style="endArrow=none;html=1;rounded=0;exitX=0.75;exitY=0.371;exitDx=0;exitDy=0;exitPerimeter=0;" edge="1" parent="5IJcJWC35ysio3x10tXy-331" source="5IJcJWC35ysio3x10tXy-210">
          <mxGeometry width="50" height="50" relative="1" as="geometry">
            <mxPoint x="170.83333333333326" y="122.22222222222223" as="sourcePoint" />
            <mxPoint x="200" y="122.22222222222223" as="targetPoint" />
          </mxGeometry>
        </mxCell>
        <mxCell id="5IJcJWC35ysio3x10tXy-220" value="" style="endArrow=none;html=1;rounded=0;exitX=0.748;exitY=0.631;exitDx=0;exitDy=0;exitPerimeter=0;" edge="1" parent="5IJcJWC35ysio3x10tXy-331">
          <mxGeometry width="50" height="50" relative="1" as="geometry">
            <mxPoint x="167.91666666666669" y="133.42777777777775" as="sourcePoint" />
            <mxPoint x="200" y="133.33333333333331" as="targetPoint" />
          </mxGeometry>
        </mxCell>
        <mxCell id="5IJcJWC35ysio3x10tXy-221" value="" style="endArrow=classic;html=1;rounded=0;exitX=1;exitY=0.5;exitDx=0;exitDy=0;entryX=-0.011;entryY=0.497;entryDx=0;entryDy=0;entryPerimeter=0;" edge="1" parent="5IJcJWC35ysio3x10tXy-331" source="5IJcJWC35ysio3x10tXy-207" target="5IJcJWC35ysio3x10tXy-209">
          <mxGeometry width="50" height="50" relative="1" as="geometry">
            <mxPoint x="150" y="120" as="sourcePoint" />
            <mxPoint x="200" y="70" as="targetPoint" />
          </mxGeometry>
        </mxCell>
        <mxCell id="5IJcJWC35ysio3x10tXy-222" value="df_0002_*" style="text;strokeColor=none;align=center;fillColor=none;html=1;verticalAlign=middle;whiteSpace=wrap;rounded=0;container=0;" vertex="1" parent="5IJcJWC35ysio3x10tXy-331">
          <mxGeometry y="57.22000000000003" width="60" height="30" as="geometry" />
        </mxCell>
        <mxCell id="5IJcJWC35ysio3x10tXy-223" value="df_o_*_2" style="text;strokeColor=none;align=center;fillColor=none;html=1;verticalAlign=middle;whiteSpace=wrap;rounded=0;container=0;" vertex="1" parent="5IJcJWC35ysio3x10tXy-331">
          <mxGeometry x="200" y="6.219999999999999" width="60" height="30" as="geometry" />
        </mxCell>
        <mxCell id="5IJcJWC35ysio3x10tXy-224" value="df_o_*_6" style="text;strokeColor=none;align=center;fillColor=none;html=1;verticalAlign=middle;whiteSpace=wrap;rounded=0;container=0;" vertex="1" parent="5IJcJWC35ysio3x10tXy-331">
          <mxGeometry x="200" y="56" width="60" height="30" as="geometry" />
        </mxCell>
        <mxCell id="5IJcJWC35ysio3x10tXy-225" value="df_o_*_7" style="text;strokeColor=none;align=center;fillColor=none;html=1;verticalAlign=middle;whiteSpace=wrap;rounded=0;container=0;" vertex="1" parent="5IJcJWC35ysio3x10tXy-331">
          <mxGeometry x="200" y="113" width="60" height="30" as="geometry" />
        </mxCell>
        <mxCell id="5IJcJWC35ysio3x10tXy-226" value="A" style="text;strokeColor=none;align=center;fillColor=none;html=1;verticalAlign=middle;whiteSpace=wrap;rounded=0;container=0;" vertex="1" parent="5IJcJWC35ysio3x10tXy-331">
          <mxGeometry x="122.16999999999996" y="7" width="60" height="30" as="geometry" />
        </mxCell>
        <mxCell id="5IJcJWC35ysio3x10tXy-227" value="B" style="text;strokeColor=none;align=center;fillColor=none;html=1;verticalAlign=middle;whiteSpace=wrap;rounded=0;container=0;" vertex="1" parent="5IJcJWC35ysio3x10tXy-331">
          <mxGeometry x="122.16999999999996" y="56.77999999999997" width="60" height="30" as="geometry" />
        </mxCell>
        <mxCell id="5IJcJWC35ysio3x10tXy-228" value="C" style="text;strokeColor=none;align=center;fillColor=none;html=1;verticalAlign=middle;whiteSpace=wrap;rounded=0;container=0;" vertex="1" parent="5IJcJWC35ysio3x10tXy-331">
          <mxGeometry x="122.16999999999996" y="112.77999999999997" width="60" height="30" as="geometry" />
        </mxCell>
        <mxCell id="5IJcJWC35ysio3x10tXy-229" value="7" style="text;strokeColor=none;align=center;fillColor=none;html=1;verticalAlign=middle;whiteSpace=wrap;rounded=0;container=0;" vertex="1" parent="5IJcJWC35ysio3x10tXy-331">
          <mxGeometry x="70" y="57" width="60" height="30" as="geometry" />
        </mxCell>
        <mxCell id="5IJcJWC35ysio3x10tXy-332" value="" style="group" vertex="1" connectable="0" parent="1">
          <mxGeometry x="340" y="50" width="260" height="150" as="geometry" />
        </mxCell>
        <mxCell id="5IJcJWC35ysio3x10tXy-152" value="" style="triangle;whiteSpace=wrap;html=1;container=0;" vertex="1" parent="5IJcJWC35ysio3x10tXy-332">
          <mxGeometry x="89.16666666666669" y="50" width="35" height="44.44444444444444" as="geometry" />
        </mxCell>
        <mxCell id="5IJcJWC35ysio3x10tXy-153" value="" style="triangle;whiteSpace=wrap;html=1;container=0;" vertex="1" parent="5IJcJWC35ysio3x10tXy-332">
          <mxGeometry x="141.66666666666669" width="35" height="44.44444444444444" as="geometry" />
        </mxCell>
        <mxCell id="5IJcJWC35ysio3x10tXy-154" value="" style="triangle;whiteSpace=wrap;html=1;container=0;" vertex="1" parent="5IJcJWC35ysio3x10tXy-332">
          <mxGeometry x="141.66666666666669" y="50" width="35" height="44.44444444444444" as="geometry" />
        </mxCell>
        <mxCell id="5IJcJWC35ysio3x10tXy-155" value="" style="triangle;whiteSpace=wrap;html=1;container=0;fillColor=#fff2cc;strokeColor=#d6b656;" vertex="1" parent="5IJcJWC35ysio3x10tXy-332">
          <mxGeometry x="141.66666666666669" y="105.55555555555554" width="35" height="44.44444444444444" as="geometry" />
        </mxCell>
        <mxCell id="5IJcJWC35ysio3x10tXy-156" value="" style="endArrow=classic;html=1;rounded=0;entryX=0;entryY=0.5;entryDx=0;entryDy=0;" edge="1" parent="5IJcJWC35ysio3x10tXy-332" target="5IJcJWC35ysio3x10tXy-155">
          <mxGeometry width="50" height="50" relative="1" as="geometry">
            <mxPoint x="124.16666666666669" y="72.22222222222223" as="sourcePoint" />
            <mxPoint x="270" y="238.88888888888886" as="targetPoint" />
            <Array as="points">
              <mxPoint x="130" y="72.22222222222223" />
              <mxPoint x="130" y="127.77777777777777" />
            </Array>
          </mxGeometry>
        </mxCell>
        <mxCell id="5IJcJWC35ysio3x10tXy-157" value="" style="endArrow=classic;html=1;rounded=0;entryX=0;entryY=0.5;entryDx=0;entryDy=0;" edge="1" parent="5IJcJWC35ysio3x10tXy-332" target="5IJcJWC35ysio3x10tXy-153">
          <mxGeometry width="50" height="50" relative="1" as="geometry">
            <mxPoint x="130" y="72.22222222222223" as="sourcePoint" />
            <mxPoint x="223.33333333333337" y="50" as="targetPoint" />
            <Array as="points">
              <mxPoint x="130" y="22.22222222222223" />
            </Array>
          </mxGeometry>
        </mxCell>
        <mxCell id="5IJcJWC35ysio3x10tXy-158" value="" style="endArrow=none;html=1;rounded=0;" edge="1" parent="5IJcJWC35ysio3x10tXy-332">
          <mxGeometry width="50" height="50" relative="1" as="geometry">
            <mxPoint x="60" y="66.66666666666663" as="sourcePoint" />
            <mxPoint x="89.16666666666669" y="66.66666666666663" as="targetPoint" />
          </mxGeometry>
        </mxCell>
        <mxCell id="5IJcJWC35ysio3x10tXy-159" value="" style="endArrow=none;html=1;rounded=0;" edge="1" parent="5IJcJWC35ysio3x10tXy-332">
          <mxGeometry width="50" height="50" relative="1" as="geometry">
            <mxPoint x="60" y="77.77777777777777" as="sourcePoint" />
            <mxPoint x="89.16666666666669" y="77.77777777777777" as="targetPoint" />
          </mxGeometry>
        </mxCell>
        <mxCell id="5IJcJWC35ysio3x10tXy-160" value="" style="endArrow=none;html=1;rounded=0;exitX=0.74;exitY=0.37;exitDx=0;exitDy=0;exitPerimeter=0;" edge="1" parent="5IJcJWC35ysio3x10tXy-332" source="5IJcJWC35ysio3x10tXy-153">
          <mxGeometry width="50" height="50" relative="1" as="geometry">
            <mxPoint x="170.83333333333331" y="16.572222222222223" as="sourcePoint" />
            <mxPoint x="200" y="16.572222222222223" as="targetPoint" />
          </mxGeometry>
        </mxCell>
        <mxCell id="5IJcJWC35ysio3x10tXy-161" value="" style="endArrow=none;html=1;rounded=0;exitX=0.748;exitY=0.631;exitDx=0;exitDy=0;exitPerimeter=0;" edge="1" parent="5IJcJWC35ysio3x10tXy-332" source="5IJcJWC35ysio3x10tXy-153">
          <mxGeometry width="50" height="50" relative="1" as="geometry">
            <mxPoint x="170.83333333333331" y="27.683333333333337" as="sourcePoint" />
            <mxPoint x="200" y="27.683333333333337" as="targetPoint" />
          </mxGeometry>
        </mxCell>
        <mxCell id="5IJcJWC35ysio3x10tXy-162" value="" style="endArrow=none;html=1;rounded=0;exitX=0.74;exitY=0.37;exitDx=0;exitDy=0;exitPerimeter=0;" edge="1" parent="5IJcJWC35ysio3x10tXy-332">
          <mxGeometry width="50" height="50" relative="1" as="geometry">
            <mxPoint x="167.33333333333331" y="66.64444444444439" as="sourcePoint" />
            <mxPoint x="200" y="66.54999999999995" as="targetPoint" />
          </mxGeometry>
        </mxCell>
        <mxCell id="5IJcJWC35ysio3x10tXy-163" value="" style="endArrow=none;html=1;rounded=0;exitX=0.748;exitY=0.631;exitDx=0;exitDy=0;exitPerimeter=0;" edge="1" parent="5IJcJWC35ysio3x10tXy-332">
          <mxGeometry width="50" height="50" relative="1" as="geometry">
            <mxPoint x="167.91666666666669" y="77.75555555555553" as="sourcePoint" />
            <mxPoint x="200" y="77.6611111111111" as="targetPoint" />
          </mxGeometry>
        </mxCell>
        <mxCell id="5IJcJWC35ysio3x10tXy-164" value="" style="endArrow=none;html=1;rounded=0;exitX=0.75;exitY=0.371;exitDx=0;exitDy=0;exitPerimeter=0;" edge="1" parent="5IJcJWC35ysio3x10tXy-332" source="5IJcJWC35ysio3x10tXy-155">
          <mxGeometry width="50" height="50" relative="1" as="geometry">
            <mxPoint x="170.83333333333331" y="122.22222222222223" as="sourcePoint" />
            <mxPoint x="200" y="122.22222222222223" as="targetPoint" />
          </mxGeometry>
        </mxCell>
        <mxCell id="5IJcJWC35ysio3x10tXy-165" value="" style="endArrow=none;html=1;rounded=0;exitX=0.748;exitY=0.631;exitDx=0;exitDy=0;exitPerimeter=0;" edge="1" parent="5IJcJWC35ysio3x10tXy-332">
          <mxGeometry width="50" height="50" relative="1" as="geometry">
            <mxPoint x="167.91666666666669" y="133.42777777777775" as="sourcePoint" />
            <mxPoint x="200" y="133.33333333333331" as="targetPoint" />
          </mxGeometry>
        </mxCell>
        <mxCell id="5IJcJWC35ysio3x10tXy-166" value="" style="endArrow=classic;html=1;rounded=0;exitX=1;exitY=0.5;exitDx=0;exitDy=0;entryX=-0.011;entryY=0.497;entryDx=0;entryDy=0;entryPerimeter=0;" edge="1" parent="5IJcJWC35ysio3x10tXy-332" source="5IJcJWC35ysio3x10tXy-152" target="5IJcJWC35ysio3x10tXy-154">
          <mxGeometry width="50" height="50" relative="1" as="geometry">
            <mxPoint x="150" y="120" as="sourcePoint" />
            <mxPoint x="200" y="70" as="targetPoint" />
          </mxGeometry>
        </mxCell>
        <mxCell id="5IJcJWC35ysio3x10tXy-167" value="df_i_*_15" style="text;strokeColor=none;align=center;fillColor=none;html=1;verticalAlign=middle;whiteSpace=wrap;rounded=0;container=0;" vertex="1" parent="5IJcJWC35ysio3x10tXy-332">
          <mxGeometry y="57.22000000000003" width="60" height="30" as="geometry" />
        </mxCell>
        <mxCell id="5IJcJWC35ysio3x10tXy-168" value="df_0023_*" style="text;strokeColor=none;align=center;fillColor=none;html=1;verticalAlign=middle;whiteSpace=wrap;rounded=0;container=0;" vertex="1" parent="5IJcJWC35ysio3x10tXy-332">
          <mxGeometry x="200" y="6.219999999999999" width="60" height="30" as="geometry" />
        </mxCell>
        <mxCell id="5IJcJWC35ysio3x10tXy-169" value="df_0028_*" style="text;strokeColor=none;align=center;fillColor=none;html=1;verticalAlign=middle;whiteSpace=wrap;rounded=0;container=0;" vertex="1" parent="5IJcJWC35ysio3x10tXy-332">
          <mxGeometry x="200" y="56" width="60" height="30" as="geometry" />
        </mxCell>
        <mxCell id="5IJcJWC35ysio3x10tXy-171" value="A" style="text;strokeColor=none;align=center;fillColor=none;html=1;verticalAlign=middle;whiteSpace=wrap;rounded=0;container=0;" vertex="1" parent="5IJcJWC35ysio3x10tXy-332">
          <mxGeometry x="122.16999999999996" y="7" width="60" height="30" as="geometry" />
        </mxCell>
        <mxCell id="5IJcJWC35ysio3x10tXy-172" value="B" style="text;strokeColor=none;align=center;fillColor=none;html=1;verticalAlign=middle;whiteSpace=wrap;rounded=0;container=0;" vertex="1" parent="5IJcJWC35ysio3x10tXy-332">
          <mxGeometry x="122.16999999999996" y="56.77999999999997" width="60" height="30" as="geometry" />
        </mxCell>
        <mxCell id="5IJcJWC35ysio3x10tXy-173" value="C" style="text;strokeColor=none;align=center;fillColor=none;html=1;verticalAlign=middle;whiteSpace=wrap;rounded=0;container=0;" vertex="1" parent="5IJcJWC35ysio3x10tXy-332">
          <mxGeometry x="122.16999999999996" y="112.77999999999997" width="60" height="30" as="geometry" />
        </mxCell>
        <mxCell id="5IJcJWC35ysio3x10tXy-204" value="6" style="text;strokeColor=none;align=center;fillColor=none;html=1;verticalAlign=middle;whiteSpace=wrap;rounded=0;container=0;" vertex="1" parent="5IJcJWC35ysio3x10tXy-332">
          <mxGeometry x="69" y="58" width="60" height="30" as="geometry" />
        </mxCell>
        <mxCell id="5IJcJWC35ysio3x10tXy-333" value="" style="group" vertex="1" connectable="0" parent="1">
          <mxGeometry x="30" y="947" width="260" height="150" as="geometry" />
        </mxCell>
        <mxCell id="5IJcJWC35ysio3x10tXy-129" value="" style="triangle;whiteSpace=wrap;html=1;container=0;" vertex="1" parent="5IJcJWC35ysio3x10tXy-333">
          <mxGeometry x="89.16666666666667" y="50" width="35" height="44.44444444444444" as="geometry" />
        </mxCell>
        <mxCell id="5IJcJWC35ysio3x10tXy-130" value="" style="triangle;whiteSpace=wrap;html=1;container=0;" vertex="1" parent="5IJcJWC35ysio3x10tXy-333">
          <mxGeometry x="141.66666666666669" width="35" height="44.44444444444444" as="geometry" />
        </mxCell>
        <mxCell id="5IJcJWC35ysio3x10tXy-131" value="" style="triangle;whiteSpace=wrap;html=1;container=0;" vertex="1" parent="5IJcJWC35ysio3x10tXy-333">
          <mxGeometry x="141.66666666666669" y="50" width="35" height="44.44444444444444" as="geometry" />
        </mxCell>
        <mxCell id="5IJcJWC35ysio3x10tXy-132" value="" style="triangle;whiteSpace=wrap;html=1;container=0;" vertex="1" parent="5IJcJWC35ysio3x10tXy-333">
          <mxGeometry x="141.66666666666669" y="105.55555555555566" width="35" height="44.44444444444444" as="geometry" />
        </mxCell>
        <mxCell id="5IJcJWC35ysio3x10tXy-133" value="" style="endArrow=classic;html=1;rounded=0;entryX=0;entryY=0.5;entryDx=0;entryDy=0;" edge="1" parent="5IJcJWC35ysio3x10tXy-333" target="5IJcJWC35ysio3x10tXy-132">
          <mxGeometry width="50" height="50" relative="1" as="geometry">
            <mxPoint x="124.16666666666669" y="72.22222222222217" as="sourcePoint" />
            <mxPoint x="270" y="238.8888888888889" as="targetPoint" />
            <Array as="points">
              <mxPoint x="130" y="72.22222222222217" />
              <mxPoint x="130" y="127.77777777777783" />
            </Array>
          </mxGeometry>
        </mxCell>
        <mxCell id="5IJcJWC35ysio3x10tXy-134" value="" style="endArrow=classic;html=1;rounded=0;entryX=0;entryY=0.5;entryDx=0;entryDy=0;" edge="1" parent="5IJcJWC35ysio3x10tXy-333" target="5IJcJWC35ysio3x10tXy-130">
          <mxGeometry width="50" height="50" relative="1" as="geometry">
            <mxPoint x="130" y="72.22222222222217" as="sourcePoint" />
            <mxPoint x="223.33333333333334" y="50" as="targetPoint" />
            <Array as="points">
              <mxPoint x="130" y="22.22222222222217" />
            </Array>
          </mxGeometry>
        </mxCell>
        <mxCell id="5IJcJWC35ysio3x10tXy-135" value="" style="endArrow=none;html=1;rounded=0;" edge="1" parent="5IJcJWC35ysio3x10tXy-333">
          <mxGeometry width="50" height="50" relative="1" as="geometry">
            <mxPoint x="60" y="66.66666666666663" as="sourcePoint" />
            <mxPoint x="89.16666666666667" y="66.66666666666663" as="targetPoint" />
          </mxGeometry>
        </mxCell>
        <mxCell id="5IJcJWC35ysio3x10tXy-136" value="" style="endArrow=none;html=1;rounded=0;" edge="1" parent="5IJcJWC35ysio3x10tXy-333">
          <mxGeometry width="50" height="50" relative="1" as="geometry">
            <mxPoint x="60" y="77.77777777777783" as="sourcePoint" />
            <mxPoint x="89.16666666666667" y="77.77777777777783" as="targetPoint" />
          </mxGeometry>
        </mxCell>
        <mxCell id="5IJcJWC35ysio3x10tXy-137" value="" style="endArrow=none;html=1;rounded=0;exitX=0.74;exitY=0.37;exitDx=0;exitDy=0;exitPerimeter=0;" edge="1" parent="5IJcJWC35ysio3x10tXy-333" source="5IJcJWC35ysio3x10tXy-130">
          <mxGeometry width="50" height="50" relative="1" as="geometry">
            <mxPoint x="170.83333333333331" y="16.572222222222194" as="sourcePoint" />
            <mxPoint x="200" y="16.572222222222194" as="targetPoint" />
          </mxGeometry>
        </mxCell>
        <mxCell id="5IJcJWC35ysio3x10tXy-138" value="" style="endArrow=none;html=1;rounded=0;exitX=0.748;exitY=0.631;exitDx=0;exitDy=0;exitPerimeter=0;" edge="1" parent="5IJcJWC35ysio3x10tXy-333" source="5IJcJWC35ysio3x10tXy-130">
          <mxGeometry width="50" height="50" relative="1" as="geometry">
            <mxPoint x="170.83333333333331" y="27.683333333333394" as="sourcePoint" />
            <mxPoint x="200" y="27.683333333333394" as="targetPoint" />
          </mxGeometry>
        </mxCell>
        <mxCell id="5IJcJWC35ysio3x10tXy-139" value="" style="endArrow=none;html=1;rounded=0;exitX=0.74;exitY=0.37;exitDx=0;exitDy=0;exitPerimeter=0;" edge="1" parent="5IJcJWC35ysio3x10tXy-333">
          <mxGeometry width="50" height="50" relative="1" as="geometry">
            <mxPoint x="167.33333333333331" y="66.64444444444439" as="sourcePoint" />
            <mxPoint x="200" y="66.54999999999995" as="targetPoint" />
          </mxGeometry>
        </mxCell>
        <mxCell id="5IJcJWC35ysio3x10tXy-140" value="" style="endArrow=none;html=1;rounded=0;exitX=0.748;exitY=0.631;exitDx=0;exitDy=0;exitPerimeter=0;" edge="1" parent="5IJcJWC35ysio3x10tXy-333">
          <mxGeometry width="50" height="50" relative="1" as="geometry">
            <mxPoint x="167.91666666666669" y="77.75555555555547" as="sourcePoint" />
            <mxPoint x="200" y="77.66111111111104" as="targetPoint" />
          </mxGeometry>
        </mxCell>
        <mxCell id="5IJcJWC35ysio3x10tXy-141" value="" style="endArrow=none;html=1;rounded=0;exitX=0.75;exitY=0.371;exitDx=0;exitDy=0;exitPerimeter=0;" edge="1" parent="5IJcJWC35ysio3x10tXy-333" source="5IJcJWC35ysio3x10tXy-132">
          <mxGeometry width="50" height="50" relative="1" as="geometry">
            <mxPoint x="170.83333333333331" y="122.22222222222217" as="sourcePoint" />
            <mxPoint x="200" y="122.22222222222217" as="targetPoint" />
          </mxGeometry>
        </mxCell>
        <mxCell id="5IJcJWC35ysio3x10tXy-142" value="" style="endArrow=none;html=1;rounded=0;exitX=0.748;exitY=0.631;exitDx=0;exitDy=0;exitPerimeter=0;" edge="1" parent="5IJcJWC35ysio3x10tXy-333">
          <mxGeometry width="50" height="50" relative="1" as="geometry">
            <mxPoint x="167.91666666666669" y="133.4277777777777" as="sourcePoint" />
            <mxPoint x="200" y="133.33333333333326" as="targetPoint" />
          </mxGeometry>
        </mxCell>
        <mxCell id="5IJcJWC35ysio3x10tXy-143" value="" style="endArrow=classic;html=1;rounded=0;exitX=1;exitY=0.5;exitDx=0;exitDy=0;entryX=-0.011;entryY=0.497;entryDx=0;entryDy=0;entryPerimeter=0;" edge="1" parent="5IJcJWC35ysio3x10tXy-333" source="5IJcJWC35ysio3x10tXy-129" target="5IJcJWC35ysio3x10tXy-131">
          <mxGeometry width="50" height="50" relative="1" as="geometry">
            <mxPoint x="150" y="120" as="sourcePoint" />
            <mxPoint x="200" y="70" as="targetPoint" />
          </mxGeometry>
        </mxCell>
        <mxCell id="5IJcJWC35ysio3x10tXy-144" value="df_i_*_12" style="text;strokeColor=none;align=center;fillColor=none;html=1;verticalAlign=middle;whiteSpace=wrap;rounded=0;container=0;" vertex="1" parent="5IJcJWC35ysio3x10tXy-333">
          <mxGeometry y="57.22000000000003" width="60" height="30" as="geometry" />
        </mxCell>
        <mxCell id="5IJcJWC35ysio3x10tXy-145" value="df_0012_*" style="text;strokeColor=none;align=center;fillColor=none;html=1;verticalAlign=middle;whiteSpace=wrap;rounded=0;container=0;" vertex="1" parent="5IJcJWC35ysio3x10tXy-333">
          <mxGeometry x="200" y="6.220000000000027" width="60" height="30" as="geometry" />
        </mxCell>
        <mxCell id="5IJcJWC35ysio3x10tXy-146" value="df_0013_*" style="text;strokeColor=none;align=center;fillColor=none;html=1;verticalAlign=middle;whiteSpace=wrap;rounded=0;container=0;" vertex="1" parent="5IJcJWC35ysio3x10tXy-333">
          <mxGeometry x="200" y="56" width="60" height="30" as="geometry" />
        </mxCell>
        <mxCell id="5IJcJWC35ysio3x10tXy-147" value="df_0017_*" style="text;strokeColor=none;align=center;fillColor=none;html=1;verticalAlign=middle;whiteSpace=wrap;rounded=0;container=0;" vertex="1" parent="5IJcJWC35ysio3x10tXy-333">
          <mxGeometry x="200" y="113" width="60" height="30" as="geometry" />
        </mxCell>
        <mxCell id="5IJcJWC35ysio3x10tXy-148" value="A" style="text;strokeColor=none;align=center;fillColor=none;html=1;verticalAlign=middle;whiteSpace=wrap;rounded=0;container=0;" vertex="1" parent="5IJcJWC35ysio3x10tXy-333">
          <mxGeometry x="122.16999999999999" y="7" width="60" height="30" as="geometry" />
        </mxCell>
        <mxCell id="5IJcJWC35ysio3x10tXy-149" value="B" style="text;strokeColor=none;align=center;fillColor=none;html=1;verticalAlign=middle;whiteSpace=wrap;rounded=0;container=0;" vertex="1" parent="5IJcJWC35ysio3x10tXy-333">
          <mxGeometry x="122.16999999999999" y="56.77999999999997" width="60" height="30" as="geometry" />
        </mxCell>
        <mxCell id="5IJcJWC35ysio3x10tXy-150" value="C" style="text;strokeColor=none;align=center;fillColor=none;html=1;verticalAlign=middle;whiteSpace=wrap;rounded=0;container=0;" vertex="1" parent="5IJcJWC35ysio3x10tXy-333">
          <mxGeometry x="122.16999999999999" y="112.77999999999997" width="60" height="30" as="geometry" />
        </mxCell>
        <mxCell id="5IJcJWC35ysio3x10tXy-203" value="5" style="text;strokeColor=none;align=center;fillColor=none;html=1;verticalAlign=middle;whiteSpace=wrap;rounded=0;container=0;" vertex="1" parent="5IJcJWC35ysio3x10tXy-333">
          <mxGeometry x="68.99999999999999" y="58" width="60" height="30" as="geometry" />
        </mxCell>
        <mxCell id="5IJcJWC35ysio3x10tXy-334" value="" style="group" vertex="1" connectable="0" parent="1">
          <mxGeometry x="30" y="775" width="260" height="150" as="geometry" />
        </mxCell>
        <mxCell id="5IJcJWC35ysio3x10tXy-106" value="" style="triangle;whiteSpace=wrap;html=1;container=0;" vertex="1" parent="5IJcJWC35ysio3x10tXy-334">
          <mxGeometry x="89.16666666666667" y="50" width="35" height="44.44444444444444" as="geometry" />
        </mxCell>
        <mxCell id="5IJcJWC35ysio3x10tXy-107" value="" style="triangle;whiteSpace=wrap;html=1;container=0;" vertex="1" parent="5IJcJWC35ysio3x10tXy-334">
          <mxGeometry x="141.66666666666669" width="35" height="44.44444444444444" as="geometry" />
        </mxCell>
        <mxCell id="5IJcJWC35ysio3x10tXy-108" value="" style="triangle;whiteSpace=wrap;html=1;container=0;" vertex="1" parent="5IJcJWC35ysio3x10tXy-334">
          <mxGeometry x="141.66666666666669" y="50" width="35" height="44.44444444444444" as="geometry" />
        </mxCell>
        <mxCell id="5IJcJWC35ysio3x10tXy-109" value="" style="triangle;whiteSpace=wrap;html=1;container=0;" vertex="1" parent="5IJcJWC35ysio3x10tXy-334">
          <mxGeometry x="141.66666666666669" y="105.55555555555554" width="35" height="44.44444444444444" as="geometry" />
        </mxCell>
        <mxCell id="5IJcJWC35ysio3x10tXy-110" value="" style="endArrow=classic;html=1;rounded=0;entryX=0;entryY=0.5;entryDx=0;entryDy=0;" edge="1" parent="5IJcJWC35ysio3x10tXy-334" target="5IJcJWC35ysio3x10tXy-109">
          <mxGeometry width="50" height="50" relative="1" as="geometry">
            <mxPoint x="124.16666666666669" y="72.22222222222217" as="sourcePoint" />
            <mxPoint x="270" y="238.8888888888889" as="targetPoint" />
            <Array as="points">
              <mxPoint x="130" y="72.22222222222217" />
              <mxPoint x="130" y="127.77777777777783" />
            </Array>
          </mxGeometry>
        </mxCell>
        <mxCell id="5IJcJWC35ysio3x10tXy-111" value="" style="endArrow=classic;html=1;rounded=0;entryX=0;entryY=0.5;entryDx=0;entryDy=0;" edge="1" parent="5IJcJWC35ysio3x10tXy-334" target="5IJcJWC35ysio3x10tXy-107">
          <mxGeometry width="50" height="50" relative="1" as="geometry">
            <mxPoint x="130" y="72.22222222222217" as="sourcePoint" />
            <mxPoint x="223.33333333333334" y="50" as="targetPoint" />
            <Array as="points">
              <mxPoint x="130" y="22.22222222222217" />
            </Array>
          </mxGeometry>
        </mxCell>
        <mxCell id="5IJcJWC35ysio3x10tXy-112" value="" style="endArrow=none;html=1;rounded=0;" edge="1" parent="5IJcJWC35ysio3x10tXy-334">
          <mxGeometry width="50" height="50" relative="1" as="geometry">
            <mxPoint x="60" y="66.66666666666663" as="sourcePoint" />
            <mxPoint x="89.16666666666667" y="66.66666666666663" as="targetPoint" />
          </mxGeometry>
        </mxCell>
        <mxCell id="5IJcJWC35ysio3x10tXy-113" value="" style="endArrow=none;html=1;rounded=0;" edge="1" parent="5IJcJWC35ysio3x10tXy-334">
          <mxGeometry width="50" height="50" relative="1" as="geometry">
            <mxPoint x="60" y="77.77777777777783" as="sourcePoint" />
            <mxPoint x="89.16666666666667" y="77.77777777777783" as="targetPoint" />
          </mxGeometry>
        </mxCell>
        <mxCell id="5IJcJWC35ysio3x10tXy-114" value="" style="endArrow=none;html=1;rounded=0;exitX=0.74;exitY=0.37;exitDx=0;exitDy=0;exitPerimeter=0;" edge="1" parent="5IJcJWC35ysio3x10tXy-334" source="5IJcJWC35ysio3x10tXy-107">
          <mxGeometry width="50" height="50" relative="1" as="geometry">
            <mxPoint x="170.83333333333331" y="16.572222222222194" as="sourcePoint" />
            <mxPoint x="200" y="16.572222222222194" as="targetPoint" />
          </mxGeometry>
        </mxCell>
        <mxCell id="5IJcJWC35ysio3x10tXy-115" value="" style="endArrow=none;html=1;rounded=0;exitX=0.748;exitY=0.631;exitDx=0;exitDy=0;exitPerimeter=0;" edge="1" parent="5IJcJWC35ysio3x10tXy-334" source="5IJcJWC35ysio3x10tXy-107">
          <mxGeometry width="50" height="50" relative="1" as="geometry">
            <mxPoint x="170.83333333333331" y="27.683333333333394" as="sourcePoint" />
            <mxPoint x="200" y="27.683333333333394" as="targetPoint" />
          </mxGeometry>
        </mxCell>
        <mxCell id="5IJcJWC35ysio3x10tXy-116" value="" style="endArrow=none;html=1;rounded=0;exitX=0.74;exitY=0.37;exitDx=0;exitDy=0;exitPerimeter=0;" edge="1" parent="5IJcJWC35ysio3x10tXy-334">
          <mxGeometry width="50" height="50" relative="1" as="geometry">
            <mxPoint x="167.33333333333331" y="66.64444444444439" as="sourcePoint" />
            <mxPoint x="200" y="66.54999999999995" as="targetPoint" />
          </mxGeometry>
        </mxCell>
        <mxCell id="5IJcJWC35ysio3x10tXy-117" value="" style="endArrow=none;html=1;rounded=0;exitX=0.748;exitY=0.631;exitDx=0;exitDy=0;exitPerimeter=0;" edge="1" parent="5IJcJWC35ysio3x10tXy-334">
          <mxGeometry width="50" height="50" relative="1" as="geometry">
            <mxPoint x="167.91666666666669" y="77.75555555555547" as="sourcePoint" />
            <mxPoint x="200" y="77.66111111111104" as="targetPoint" />
          </mxGeometry>
        </mxCell>
        <mxCell id="5IJcJWC35ysio3x10tXy-118" value="" style="endArrow=none;html=1;rounded=0;exitX=0.75;exitY=0.371;exitDx=0;exitDy=0;exitPerimeter=0;" edge="1" parent="5IJcJWC35ysio3x10tXy-334" source="5IJcJWC35ysio3x10tXy-109">
          <mxGeometry width="50" height="50" relative="1" as="geometry">
            <mxPoint x="170.83333333333331" y="122.22222222222217" as="sourcePoint" />
            <mxPoint x="200" y="122.22222222222217" as="targetPoint" />
          </mxGeometry>
        </mxCell>
        <mxCell id="5IJcJWC35ysio3x10tXy-119" value="" style="endArrow=none;html=1;rounded=0;exitX=0.748;exitY=0.631;exitDx=0;exitDy=0;exitPerimeter=0;" edge="1" parent="5IJcJWC35ysio3x10tXy-334">
          <mxGeometry width="50" height="50" relative="1" as="geometry">
            <mxPoint x="167.91666666666669" y="133.4277777777777" as="sourcePoint" />
            <mxPoint x="200" y="133.33333333333326" as="targetPoint" />
          </mxGeometry>
        </mxCell>
        <mxCell id="5IJcJWC35ysio3x10tXy-120" value="" style="endArrow=classic;html=1;rounded=0;exitX=1;exitY=0.5;exitDx=0;exitDy=0;entryX=-0.011;entryY=0.497;entryDx=0;entryDy=0;entryPerimeter=0;" edge="1" parent="5IJcJWC35ysio3x10tXy-334" source="5IJcJWC35ysio3x10tXy-106" target="5IJcJWC35ysio3x10tXy-108">
          <mxGeometry width="50" height="50" relative="1" as="geometry">
            <mxPoint x="150" y="120" as="sourcePoint" />
            <mxPoint x="200" y="70" as="targetPoint" />
          </mxGeometry>
        </mxCell>
        <mxCell id="5IJcJWC35ysio3x10tXy-121" value="df_i_*_10" style="text;strokeColor=none;align=center;fillColor=none;html=1;verticalAlign=middle;whiteSpace=wrap;rounded=0;container=0;" vertex="1" parent="5IJcJWC35ysio3x10tXy-334">
          <mxGeometry y="57.22000000000003" width="60" height="30" as="geometry" />
        </mxCell>
        <mxCell id="5IJcJWC35ysio3x10tXy-122" value="df_0005_*" style="text;strokeColor=none;align=center;fillColor=none;html=1;verticalAlign=middle;whiteSpace=wrap;rounded=0;container=0;" vertex="1" parent="5IJcJWC35ysio3x10tXy-334">
          <mxGeometry x="200" y="6.220000000000027" width="60" height="30" as="geometry" />
        </mxCell>
        <mxCell id="5IJcJWC35ysio3x10tXy-123" value="df_0008_*" style="text;strokeColor=none;align=center;fillColor=none;html=1;verticalAlign=middle;whiteSpace=wrap;rounded=0;container=0;" vertex="1" parent="5IJcJWC35ysio3x10tXy-334">
          <mxGeometry x="200" y="56" width="60" height="30" as="geometry" />
        </mxCell>
        <mxCell id="5IJcJWC35ysio3x10tXy-124" value="df_0011_*" style="text;strokeColor=none;align=center;fillColor=none;html=1;verticalAlign=middle;whiteSpace=wrap;rounded=0;container=0;" vertex="1" parent="5IJcJWC35ysio3x10tXy-334">
          <mxGeometry x="200" y="113" width="60" height="30" as="geometry" />
        </mxCell>
        <mxCell id="5IJcJWC35ysio3x10tXy-125" value="A" style="text;strokeColor=none;align=center;fillColor=none;html=1;verticalAlign=middle;whiteSpace=wrap;rounded=0;container=0;" vertex="1" parent="5IJcJWC35ysio3x10tXy-334">
          <mxGeometry x="122.16999999999999" y="7" width="60" height="30" as="geometry" />
        </mxCell>
        <mxCell id="5IJcJWC35ysio3x10tXy-126" value="B" style="text;strokeColor=none;align=center;fillColor=none;html=1;verticalAlign=middle;whiteSpace=wrap;rounded=0;container=0;" vertex="1" parent="5IJcJWC35ysio3x10tXy-334">
          <mxGeometry x="122.16999999999999" y="56.77999999999997" width="60" height="30" as="geometry" />
        </mxCell>
        <mxCell id="5IJcJWC35ysio3x10tXy-127" value="C" style="text;strokeColor=none;align=center;fillColor=none;html=1;verticalAlign=middle;whiteSpace=wrap;rounded=0;container=0;" vertex="1" parent="5IJcJWC35ysio3x10tXy-334">
          <mxGeometry x="122.16999999999999" y="112.77999999999997" width="60" height="30" as="geometry" />
        </mxCell>
        <mxCell id="5IJcJWC35ysio3x10tXy-202" value="4" style="text;strokeColor=none;align=center;fillColor=none;html=1;verticalAlign=middle;whiteSpace=wrap;rounded=0;container=0;" vertex="1" parent="5IJcJWC35ysio3x10tXy-334">
          <mxGeometry x="68.99999999999999" y="57" width="60" height="30" as="geometry" />
        </mxCell>
        <mxCell id="5IJcJWC35ysio3x10tXy-336" value="" style="group" vertex="1" connectable="0" parent="1">
          <mxGeometry x="30" y="420" width="260" height="150" as="geometry" />
        </mxCell>
        <mxCell id="5IJcJWC35ysio3x10tXy-60" value="" style="triangle;whiteSpace=wrap;html=1;container=0;" vertex="1" parent="5IJcJWC35ysio3x10tXy-336">
          <mxGeometry x="89.16666666666667" y="50" width="35" height="44.44444444444444" as="geometry" />
        </mxCell>
        <mxCell id="5IJcJWC35ysio3x10tXy-61" value="" style="triangle;whiteSpace=wrap;html=1;container=0;" vertex="1" parent="5IJcJWC35ysio3x10tXy-336">
          <mxGeometry x="141.66666666666669" width="35" height="44.44444444444444" as="geometry" />
        </mxCell>
        <mxCell id="5IJcJWC35ysio3x10tXy-62" value="" style="triangle;whiteSpace=wrap;html=1;container=0;" vertex="1" parent="5IJcJWC35ysio3x10tXy-336">
          <mxGeometry x="141.66666666666669" y="50" width="35" height="44.44444444444444" as="geometry" />
        </mxCell>
        <mxCell id="5IJcJWC35ysio3x10tXy-63" value="" style="triangle;whiteSpace=wrap;html=1;container=0;" vertex="1" parent="5IJcJWC35ysio3x10tXy-336">
          <mxGeometry x="141.66666666666669" y="105.55555555555554" width="35" height="44.44444444444444" as="geometry" />
        </mxCell>
        <mxCell id="5IJcJWC35ysio3x10tXy-64" value="" style="endArrow=classic;html=1;rounded=0;entryX=0;entryY=0.5;entryDx=0;entryDy=0;" edge="1" parent="5IJcJWC35ysio3x10tXy-336" target="5IJcJWC35ysio3x10tXy-63">
          <mxGeometry width="50" height="50" relative="1" as="geometry">
            <mxPoint x="124.16666666666669" y="72.22222222222223" as="sourcePoint" />
            <mxPoint x="270" y="238.8888888888889" as="targetPoint" />
            <Array as="points">
              <mxPoint x="130" y="72.22222222222223" />
              <mxPoint x="130" y="127.77777777777783" />
            </Array>
          </mxGeometry>
        </mxCell>
        <mxCell id="5IJcJWC35ysio3x10tXy-65" value="" style="endArrow=classic;html=1;rounded=0;entryX=0;entryY=0.5;entryDx=0;entryDy=0;" edge="1" parent="5IJcJWC35ysio3x10tXy-336" target="5IJcJWC35ysio3x10tXy-61">
          <mxGeometry width="50" height="50" relative="1" as="geometry">
            <mxPoint x="130" y="72.22222222222223" as="sourcePoint" />
            <mxPoint x="223.33333333333334" y="50" as="targetPoint" />
            <Array as="points">
              <mxPoint x="130" y="22.22222222222223" />
            </Array>
          </mxGeometry>
        </mxCell>
        <mxCell id="5IJcJWC35ysio3x10tXy-66" value="" style="endArrow=none;html=1;rounded=0;" edge="1" parent="5IJcJWC35ysio3x10tXy-336">
          <mxGeometry width="50" height="50" relative="1" as="geometry">
            <mxPoint x="60" y="66.66666666666663" as="sourcePoint" />
            <mxPoint x="89.16666666666667" y="66.66666666666663" as="targetPoint" />
          </mxGeometry>
        </mxCell>
        <mxCell id="5IJcJWC35ysio3x10tXy-67" value="" style="endArrow=none;html=1;rounded=0;" edge="1" parent="5IJcJWC35ysio3x10tXy-336">
          <mxGeometry width="50" height="50" relative="1" as="geometry">
            <mxPoint x="60" y="77.77777777777777" as="sourcePoint" />
            <mxPoint x="89.16666666666667" y="77.77777777777777" as="targetPoint" />
          </mxGeometry>
        </mxCell>
        <mxCell id="5IJcJWC35ysio3x10tXy-68" value="" style="endArrow=none;html=1;rounded=0;exitX=0.74;exitY=0.37;exitDx=0;exitDy=0;exitPerimeter=0;" edge="1" parent="5IJcJWC35ysio3x10tXy-336" source="5IJcJWC35ysio3x10tXy-61">
          <mxGeometry width="50" height="50" relative="1" as="geometry">
            <mxPoint x="170.83333333333331" y="16.572222222222194" as="sourcePoint" />
            <mxPoint x="200" y="16.572222222222194" as="targetPoint" />
          </mxGeometry>
        </mxCell>
        <mxCell id="5IJcJWC35ysio3x10tXy-69" value="" style="endArrow=none;html=1;rounded=0;exitX=0.748;exitY=0.631;exitDx=0;exitDy=0;exitPerimeter=0;" edge="1" parent="5IJcJWC35ysio3x10tXy-336" source="5IJcJWC35ysio3x10tXy-61">
          <mxGeometry width="50" height="50" relative="1" as="geometry">
            <mxPoint x="170.83333333333331" y="27.683333333333337" as="sourcePoint" />
            <mxPoint x="200" y="27.683333333333337" as="targetPoint" />
          </mxGeometry>
        </mxCell>
        <mxCell id="5IJcJWC35ysio3x10tXy-70" value="" style="endArrow=none;html=1;rounded=0;exitX=0.74;exitY=0.37;exitDx=0;exitDy=0;exitPerimeter=0;" edge="1" parent="5IJcJWC35ysio3x10tXy-336">
          <mxGeometry width="50" height="50" relative="1" as="geometry">
            <mxPoint x="167.33333333333331" y="66.64444444444439" as="sourcePoint" />
            <mxPoint x="200" y="66.54999999999995" as="targetPoint" />
          </mxGeometry>
        </mxCell>
        <mxCell id="5IJcJWC35ysio3x10tXy-71" value="" style="endArrow=none;html=1;rounded=0;exitX=0.748;exitY=0.631;exitDx=0;exitDy=0;exitPerimeter=0;" edge="1" parent="5IJcJWC35ysio3x10tXy-336">
          <mxGeometry width="50" height="50" relative="1" as="geometry">
            <mxPoint x="167.91666666666669" y="77.75555555555553" as="sourcePoint" />
            <mxPoint x="200" y="77.6611111111111" as="targetPoint" />
          </mxGeometry>
        </mxCell>
        <mxCell id="5IJcJWC35ysio3x10tXy-72" value="" style="endArrow=none;html=1;rounded=0;exitX=0.75;exitY=0.371;exitDx=0;exitDy=0;exitPerimeter=0;" edge="1" parent="5IJcJWC35ysio3x10tXy-336" source="5IJcJWC35ysio3x10tXy-63">
          <mxGeometry width="50" height="50" relative="1" as="geometry">
            <mxPoint x="170.83333333333331" y="122.22222222222217" as="sourcePoint" />
            <mxPoint x="200" y="122.22222222222217" as="targetPoint" />
          </mxGeometry>
        </mxCell>
        <mxCell id="5IJcJWC35ysio3x10tXy-73" value="" style="endArrow=none;html=1;rounded=0;exitX=0.748;exitY=0.631;exitDx=0;exitDy=0;exitPerimeter=0;" edge="1" parent="5IJcJWC35ysio3x10tXy-336">
          <mxGeometry width="50" height="50" relative="1" as="geometry">
            <mxPoint x="167.91666666666669" y="133.4277777777777" as="sourcePoint" />
            <mxPoint x="200" y="133.33333333333326" as="targetPoint" />
          </mxGeometry>
        </mxCell>
        <mxCell id="5IJcJWC35ysio3x10tXy-74" value="" style="endArrow=classic;html=1;rounded=0;exitX=1;exitY=0.5;exitDx=0;exitDy=0;entryX=-0.011;entryY=0.497;entryDx=0;entryDy=0;entryPerimeter=0;" edge="1" parent="5IJcJWC35ysio3x10tXy-336" source="5IJcJWC35ysio3x10tXy-60" target="5IJcJWC35ysio3x10tXy-62">
          <mxGeometry width="50" height="50" relative="1" as="geometry">
            <mxPoint x="150" y="120" as="sourcePoint" />
            <mxPoint x="200" y="70" as="targetPoint" />
          </mxGeometry>
        </mxCell>
        <mxCell id="5IJcJWC35ysio3x10tXy-75" value="df_0056_*" style="text;strokeColor=none;align=center;fillColor=none;html=1;verticalAlign=middle;whiteSpace=wrap;rounded=0;container=0;" vertex="1" parent="5IJcJWC35ysio3x10tXy-336">
          <mxGeometry y="57.22000000000003" width="60" height="30" as="geometry" />
        </mxCell>
        <mxCell id="5IJcJWC35ysio3x10tXy-76" value="df_0057_*" style="text;strokeColor=none;align=center;fillColor=none;html=1;verticalAlign=middle;whiteSpace=wrap;rounded=0;container=0;" vertex="1" parent="5IJcJWC35ysio3x10tXy-336">
          <mxGeometry x="200" y="6.220000000000027" width="60" height="30" as="geometry" />
        </mxCell>
        <mxCell id="5IJcJWC35ysio3x10tXy-77" value="df_0059_*" style="text;strokeColor=none;align=center;fillColor=none;html=1;verticalAlign=middle;whiteSpace=wrap;rounded=0;container=0;" vertex="1" parent="5IJcJWC35ysio3x10tXy-336">
          <mxGeometry x="200" y="56" width="60" height="30" as="geometry" />
        </mxCell>
        <mxCell id="5IJcJWC35ysio3x10tXy-78" value="df_0092_*" style="text;strokeColor=none;align=center;fillColor=none;html=1;verticalAlign=middle;whiteSpace=wrap;rounded=0;container=0;" vertex="1" parent="5IJcJWC35ysio3x10tXy-336">
          <mxGeometry x="200" y="113" width="60" height="30" as="geometry" />
        </mxCell>
        <mxCell id="5IJcJWC35ysio3x10tXy-79" value="A" style="text;strokeColor=none;align=center;fillColor=none;html=1;verticalAlign=middle;whiteSpace=wrap;rounded=0;container=0;" vertex="1" parent="5IJcJWC35ysio3x10tXy-336">
          <mxGeometry x="122.16999999999999" y="7" width="60" height="30" as="geometry" />
        </mxCell>
        <mxCell id="5IJcJWC35ysio3x10tXy-80" value="B" style="text;strokeColor=none;align=center;fillColor=none;html=1;verticalAlign=middle;whiteSpace=wrap;rounded=0;container=0;" vertex="1" parent="5IJcJWC35ysio3x10tXy-336">
          <mxGeometry x="122.16999999999999" y="56.77999999999997" width="60" height="30" as="geometry" />
        </mxCell>
        <mxCell id="5IJcJWC35ysio3x10tXy-81" value="C" style="text;strokeColor=none;align=center;fillColor=none;html=1;verticalAlign=middle;whiteSpace=wrap;rounded=0;container=0;" vertex="1" parent="5IJcJWC35ysio3x10tXy-336">
          <mxGeometry x="122.16999999999999" y="112.77999999999997" width="60" height="30" as="geometry" />
        </mxCell>
        <mxCell id="5IJcJWC35ysio3x10tXy-200" value="2" style="text;strokeColor=none;align=center;fillColor=none;html=1;verticalAlign=middle;whiteSpace=wrap;rounded=0;container=0;" vertex="1" parent="5IJcJWC35ysio3x10tXy-336">
          <mxGeometry x="68.99999999999999" y="58" width="60" height="30" as="geometry" />
        </mxCell>
        <mxCell id="5IJcJWC35ysio3x10tXy-337" value="" style="group" vertex="1" connectable="0" parent="1">
          <mxGeometry x="30" y="230" width="260" height="150" as="geometry" />
        </mxCell>
        <mxCell id="5IJcJWC35ysio3x10tXy-31" value="" style="triangle;whiteSpace=wrap;html=1;container=0;" vertex="1" parent="5IJcJWC35ysio3x10tXy-337">
          <mxGeometry x="89.16666666666667" y="50" width="35" height="44.44444444444444" as="geometry" />
        </mxCell>
        <mxCell id="5IJcJWC35ysio3x10tXy-32" value="" style="triangle;whiteSpace=wrap;html=1;container=0;" vertex="1" parent="5IJcJWC35ysio3x10tXy-337">
          <mxGeometry x="141.66666666666669" width="35" height="44.44444444444444" as="geometry" />
        </mxCell>
        <mxCell id="5IJcJWC35ysio3x10tXy-33" value="" style="triangle;whiteSpace=wrap;html=1;container=0;" vertex="1" parent="5IJcJWC35ysio3x10tXy-337">
          <mxGeometry x="141.66666666666669" y="50" width="35" height="44.44444444444444" as="geometry" />
        </mxCell>
        <mxCell id="5IJcJWC35ysio3x10tXy-34" value="" style="triangle;whiteSpace=wrap;html=1;container=0;" vertex="1" parent="5IJcJWC35ysio3x10tXy-337">
          <mxGeometry x="141.66666666666669" y="105.55555555555554" width="35" height="44.44444444444444" as="geometry" />
        </mxCell>
        <mxCell id="5IJcJWC35ysio3x10tXy-35" value="" style="endArrow=classic;html=1;rounded=0;entryX=0;entryY=0.5;entryDx=0;entryDy=0;" edge="1" parent="5IJcJWC35ysio3x10tXy-337" target="5IJcJWC35ysio3x10tXy-34">
          <mxGeometry width="50" height="50" relative="1" as="geometry">
            <mxPoint x="124.16666666666669" y="72.22222222222223" as="sourcePoint" />
            <mxPoint x="270" y="238.88888888888886" as="targetPoint" />
            <Array as="points">
              <mxPoint x="130" y="72.22222222222223" />
              <mxPoint x="130" y="127.77777777777777" />
            </Array>
          </mxGeometry>
        </mxCell>
        <mxCell id="5IJcJWC35ysio3x10tXy-36" value="" style="endArrow=classic;html=1;rounded=0;entryX=0;entryY=0.5;entryDx=0;entryDy=0;" edge="1" parent="5IJcJWC35ysio3x10tXy-337" target="5IJcJWC35ysio3x10tXy-32">
          <mxGeometry width="50" height="50" relative="1" as="geometry">
            <mxPoint x="130" y="72.22222222222223" as="sourcePoint" />
            <mxPoint x="223.33333333333334" y="50" as="targetPoint" />
            <Array as="points">
              <mxPoint x="130" y="22.22222222222223" />
            </Array>
          </mxGeometry>
        </mxCell>
        <mxCell id="5IJcJWC35ysio3x10tXy-37" value="" style="endArrow=none;html=1;rounded=0;" edge="1" parent="5IJcJWC35ysio3x10tXy-337">
          <mxGeometry width="50" height="50" relative="1" as="geometry">
            <mxPoint x="60" y="66.66666666666663" as="sourcePoint" />
            <mxPoint x="89.16666666666667" y="66.66666666666663" as="targetPoint" />
          </mxGeometry>
        </mxCell>
        <mxCell id="5IJcJWC35ysio3x10tXy-38" value="" style="endArrow=none;html=1;rounded=0;" edge="1" parent="5IJcJWC35ysio3x10tXy-337">
          <mxGeometry width="50" height="50" relative="1" as="geometry">
            <mxPoint x="60" y="77.77777777777777" as="sourcePoint" />
            <mxPoint x="89.16666666666667" y="77.77777777777777" as="targetPoint" />
          </mxGeometry>
        </mxCell>
        <mxCell id="5IJcJWC35ysio3x10tXy-39" value="" style="endArrow=none;html=1;rounded=0;exitX=0.74;exitY=0.37;exitDx=0;exitDy=0;exitPerimeter=0;" edge="1" parent="5IJcJWC35ysio3x10tXy-337" source="5IJcJWC35ysio3x10tXy-32">
          <mxGeometry width="50" height="50" relative="1" as="geometry">
            <mxPoint x="170.83333333333331" y="16.572222222222223" as="sourcePoint" />
            <mxPoint x="200" y="16.572222222222223" as="targetPoint" />
          </mxGeometry>
        </mxCell>
        <mxCell id="5IJcJWC35ysio3x10tXy-40" value="" style="endArrow=none;html=1;rounded=0;exitX=0.748;exitY=0.631;exitDx=0;exitDy=0;exitPerimeter=0;" edge="1" parent="5IJcJWC35ysio3x10tXy-337" source="5IJcJWC35ysio3x10tXy-32">
          <mxGeometry width="50" height="50" relative="1" as="geometry">
            <mxPoint x="170.83333333333331" y="27.683333333333337" as="sourcePoint" />
            <mxPoint x="200" y="27.683333333333337" as="targetPoint" />
          </mxGeometry>
        </mxCell>
        <mxCell id="5IJcJWC35ysio3x10tXy-41" value="" style="endArrow=none;html=1;rounded=0;exitX=0.74;exitY=0.37;exitDx=0;exitDy=0;exitPerimeter=0;" edge="1" parent="5IJcJWC35ysio3x10tXy-337">
          <mxGeometry width="50" height="50" relative="1" as="geometry">
            <mxPoint x="167.33333333333331" y="66.64444444444439" as="sourcePoint" />
            <mxPoint x="200" y="66.54999999999995" as="targetPoint" />
          </mxGeometry>
        </mxCell>
        <mxCell id="5IJcJWC35ysio3x10tXy-42" value="" style="endArrow=none;html=1;rounded=0;exitX=0.748;exitY=0.631;exitDx=0;exitDy=0;exitPerimeter=0;" edge="1" parent="5IJcJWC35ysio3x10tXy-337">
          <mxGeometry width="50" height="50" relative="1" as="geometry">
            <mxPoint x="167.91666666666669" y="77.75555555555553" as="sourcePoint" />
            <mxPoint x="200" y="77.6611111111111" as="targetPoint" />
          </mxGeometry>
        </mxCell>
        <mxCell id="5IJcJWC35ysio3x10tXy-43" value="" style="endArrow=none;html=1;rounded=0;exitX=0.75;exitY=0.371;exitDx=0;exitDy=0;exitPerimeter=0;" edge="1" parent="5IJcJWC35ysio3x10tXy-337" source="5IJcJWC35ysio3x10tXy-34">
          <mxGeometry width="50" height="50" relative="1" as="geometry">
            <mxPoint x="170.83333333333331" y="122.22222222222223" as="sourcePoint" />
            <mxPoint x="200" y="122.22222222222223" as="targetPoint" />
          </mxGeometry>
        </mxCell>
        <mxCell id="5IJcJWC35ysio3x10tXy-44" value="" style="endArrow=none;html=1;rounded=0;exitX=0.748;exitY=0.631;exitDx=0;exitDy=0;exitPerimeter=0;" edge="1" parent="5IJcJWC35ysio3x10tXy-337">
          <mxGeometry width="50" height="50" relative="1" as="geometry">
            <mxPoint x="167.91666666666669" y="133.42777777777775" as="sourcePoint" />
            <mxPoint x="200" y="133.33333333333331" as="targetPoint" />
          </mxGeometry>
        </mxCell>
        <mxCell id="5IJcJWC35ysio3x10tXy-45" value="" style="endArrow=classic;html=1;rounded=0;exitX=1;exitY=0.5;exitDx=0;exitDy=0;entryX=-0.011;entryY=0.497;entryDx=0;entryDy=0;entryPerimeter=0;" edge="1" parent="5IJcJWC35ysio3x10tXy-337" source="5IJcJWC35ysio3x10tXy-31" target="5IJcJWC35ysio3x10tXy-33">
          <mxGeometry width="50" height="50" relative="1" as="geometry">
            <mxPoint x="150" y="120" as="sourcePoint" />
            <mxPoint x="200" y="70" as="targetPoint" />
          </mxGeometry>
        </mxCell>
        <mxCell id="5IJcJWC35ysio3x10tXy-46" value="df_0051_*" style="text;strokeColor=none;align=center;fillColor=none;html=1;verticalAlign=middle;whiteSpace=wrap;rounded=0;container=0;" vertex="1" parent="5IJcJWC35ysio3x10tXy-337">
          <mxGeometry y="57.22000000000003" width="60" height="30" as="geometry" />
        </mxCell>
        <mxCell id="5IJcJWC35ysio3x10tXy-47" value="df_o_*_19" style="text;strokeColor=none;align=center;fillColor=none;html=1;verticalAlign=middle;whiteSpace=wrap;rounded=0;container=0;" vertex="1" parent="5IJcJWC35ysio3x10tXy-337">
          <mxGeometry x="200" y="6.219999999999999" width="60" height="30" as="geometry" />
        </mxCell>
        <mxCell id="5IJcJWC35ysio3x10tXy-48" value="df_0052_*" style="text;strokeColor=none;align=center;fillColor=none;html=1;verticalAlign=middle;whiteSpace=wrap;rounded=0;container=0;" vertex="1" parent="5IJcJWC35ysio3x10tXy-337">
          <mxGeometry x="200" y="56" width="60" height="30" as="geometry" />
        </mxCell>
        <mxCell id="5IJcJWC35ysio3x10tXy-49" value="df_0053_*" style="text;strokeColor=none;align=center;fillColor=none;html=1;verticalAlign=middle;whiteSpace=wrap;rounded=0;container=0;" vertex="1" parent="5IJcJWC35ysio3x10tXy-337">
          <mxGeometry x="200" y="113" width="60" height="30" as="geometry" />
        </mxCell>
        <mxCell id="5IJcJWC35ysio3x10tXy-55" value="A" style="text;strokeColor=none;align=center;fillColor=none;html=1;verticalAlign=middle;whiteSpace=wrap;rounded=0;container=0;" vertex="1" parent="5IJcJWC35ysio3x10tXy-337">
          <mxGeometry x="122.16999999999999" y="7" width="60" height="30" as="geometry" />
        </mxCell>
        <mxCell id="5IJcJWC35ysio3x10tXy-56" value="B" style="text;strokeColor=none;align=center;fillColor=none;html=1;verticalAlign=middle;whiteSpace=wrap;rounded=0;container=0;" vertex="1" parent="5IJcJWC35ysio3x10tXy-337">
          <mxGeometry x="122.16999999999999" y="56.77999999999997" width="60" height="30" as="geometry" />
        </mxCell>
        <mxCell id="5IJcJWC35ysio3x10tXy-57" value="C" style="text;strokeColor=none;align=center;fillColor=none;html=1;verticalAlign=middle;whiteSpace=wrap;rounded=0;container=0;" vertex="1" parent="5IJcJWC35ysio3x10tXy-337">
          <mxGeometry x="122.16999999999999" y="112.77999999999997" width="60" height="30" as="geometry" />
        </mxCell>
        <mxCell id="5IJcJWC35ysio3x10tXy-175" value="1" style="text;strokeColor=none;align=center;fillColor=none;html=1;verticalAlign=middle;whiteSpace=wrap;rounded=0;container=0;" vertex="1" parent="5IJcJWC35ysio3x10tXy-337">
          <mxGeometry x="69.99999999999999" y="57" width="60" height="30" as="geometry" />
        </mxCell>
        <mxCell id="5IJcJWC35ysio3x10tXy-340" value="" style="triangle;whiteSpace=wrap;html=1;fillColor=#f8cecc;strokeColor=#b85450;" vertex="1" parent="1">
          <mxGeometry x="139.16666666666669" y="-22.22" width="35" height="44.44444444444444" as="geometry" />
        </mxCell>
        <mxCell id="5IJcJWC35ysio3x10tXy-341" value="" style="endArrow=none;html=1;rounded=0;" edge="1" parent="1">
          <mxGeometry width="50" height="50" relative="1" as="geometry">
            <mxPoint x="110" y="-5.553333333333342" as="sourcePoint" />
            <mxPoint x="139.16666666666669" y="-5.553333333333342" as="targetPoint" />
          </mxGeometry>
        </mxCell>
        <mxCell id="5IJcJWC35ysio3x10tXy-342" value="" style="endArrow=none;html=1;rounded=0;" edge="1" parent="1">
          <mxGeometry width="50" height="50" relative="1" as="geometry">
            <mxPoint x="110" y="5.557777777777773" as="sourcePoint" />
            <mxPoint x="139.16666666666669" y="5.557777777777773" as="targetPoint" />
          </mxGeometry>
        </mxCell>
        <mxCell id="5IJcJWC35ysio3x10tXy-343" value="" style="endArrow=none;html=1;rounded=0;exitX=0.74;exitY=0.37;exitDx=0;exitDy=0;exitPerimeter=0;" edge="1" parent="1">
          <mxGeometry width="50" height="50" relative="1" as="geometry">
            <mxPoint x="236.32999999999998" y="-6.219999999999999" as="sourcePoint" />
            <mxPoint x="270" y="-6" as="targetPoint" />
          </mxGeometry>
        </mxCell>
        <mxCell id="5IJcJWC35ysio3x10tXy-344" value="" style="endArrow=none;html=1;rounded=0;exitX=0.748;exitY=0.631;exitDx=0;exitDy=0;exitPerimeter=0;" edge="1" parent="1">
          <mxGeometry width="50" height="50" relative="1" as="geometry">
            <mxPoint x="236.32999999999998" y="5.780000000000001" as="sourcePoint" />
            <mxPoint x="270" y="6" as="targetPoint" />
          </mxGeometry>
        </mxCell>
        <mxCell id="5IJcJWC35ysio3x10tXy-347" value="" style="triangle;whiteSpace=wrap;html=1;fillColor=#f8cecc;strokeColor=#b85450;" vertex="1" parent="1">
          <mxGeometry x="212.99666666666667" y="-22.22" width="35" height="44.44444444444444" as="geometry" />
        </mxCell>
        <mxCell id="5IJcJWC35ysio3x10tXy-345" value="CLKO" style="text;strokeColor=none;align=center;fillColor=none;html=1;verticalAlign=middle;whiteSpace=wrap;rounded=0;fontSize=8;" vertex="1" parent="1">
          <mxGeometry x="214.99999999999997" width="24.33" as="geometry" />
        </mxCell>
        <mxCell id="5IJcJWC35ysio3x10tXy-349" value="CLKI" style="text;strokeColor=none;align=center;fillColor=none;html=1;verticalAlign=middle;whiteSpace=wrap;rounded=0;fontSize=8;" vertex="1" parent="1">
          <mxGeometry x="141.16999999999996" width="24.33" as="geometry" />
        </mxCell>
        <mxCell id="5IJcJWC35ysio3x10tXy-350" value="" style="endArrow=classic;html=1;rounded=0;exitX=1;exitY=0.5;exitDx=0;exitDy=0;entryX=-0.082;entryY=0;entryDx=0;entryDy=0;entryPerimeter=0;" edge="1" parent="1" source="5IJcJWC35ysio3x10tXy-340" target="5IJcJWC35ysio3x10tXy-345">
          <mxGeometry width="50" height="50" relative="1" as="geometry">
            <mxPoint x="230" y="120" as="sourcePoint" />
            <mxPoint x="280" y="70" as="targetPoint" />
          </mxGeometry>
        </mxCell>
        <mxCell id="5IJcJWC35ysio3x10tXy-352" value="NC" style="text;strokeColor=none;align=center;fillColor=none;html=1;verticalAlign=middle;whiteSpace=wrap;rounded=0;fontSize=8;" vertex="1" parent="1">
          <mxGeometry x="99.99999999999996" width="24.33" as="geometry" />
        </mxCell>
        <mxCell id="5IJcJWC35ysio3x10tXy-353" value="NC" style="text;strokeColor=none;align=center;fillColor=none;html=1;verticalAlign=middle;whiteSpace=wrap;rounded=0;fontSize=8;" vertex="1" parent="1">
          <mxGeometry x="251.99999999999994" width="24.33" as="geometry" />
        </mxCell>
      </root>
    </mxGraphModel>
  </diagram>
</mxfile>
